<svg id="svg" version="1.1" xmlns="http://www.w3.org/2000/svg" xmlns:xlink="http://www.w3.org/1999/xlink" width="400" height="322.66666666666663" viewBox="0, 0, 400,322.66666666666663"><g id="svgg"><path id="path0" d="M80.522 43.341 C 80.628 44.806,80.860 49.128,81.036 52.946 C 81.438 61.634,81.919 71.736,82.323 79.994 C 82.495 83.495,82.998 94.423,83.441 104.278 C 83.885 114.132,84.338 123.411,84.448 124.896 L 84.648 127.596 85.776 127.413 C 91.464 126.490,92.123 121.540,90.554 91.525 C 90.294 86.554,89.715 74.496,89.266 64.730 C 88.818 54.964,88.401 45.996,88.340 44.803 C 88.171 41.514,87.046 40.678,82.790 40.678 L 80.329 40.678 80.522 43.341 M178.672 50.815 C 176.679 51.299,173.314 53.291,172.570 54.427 C 172.270 54.884,171.491 55.864,170.839 56.604 C 170.187 57.344,169.912 57.747,170.228 57.498 C 170.762 57.079,170.779 57.110,170.468 57.929 C 170.284 58.414,170.053 59.489,169.955 60.317 C 169.858 61.146,169.431 63.567,169.008 65.698 C 168.584 67.829,167.790 71.969,167.243 74.899 C 166.697 77.829,166.030 81.098,165.762 82.163 C 165.321 83.912,165.324 84.269,165.793 85.835 C 166.163 87.073,166.212 87.670,165.965 87.917 C 165.442 88.441,165.548 89.427,166.127 89.427 C 168.076 89.427,173.079 88.599,174.011 88.122 C 176.280 86.962,180.339 81.622,181.671 78.044 C 186.255 65.731,187.295 60.009,185.804 55.303 C 184.319 50.616,182.975 49.770,178.672 50.815 M158.870 68.362 C 158.888 68.672,159.012 69.290,159.146 69.734 L 159.391 70.541 159.633 69.654 C 159.902 68.672,159.684 67.797,159.171 67.797 C 158.988 67.797,158.852 68.051,158.870 68.362 M197.818 75.291 C 195.924 77.637,194.491 79.634,194.635 79.730 C 194.904 79.908,195.560 81.072,196.394 82.850 C 197.112 84.383,197.432 84.389,198.644 82.893 C 200.169 81.010,200.785 79.705,201.004 77.891 C 201.106 77.044,201.397 75.290,201.651 73.992 C 202.086 71.764,202.049 71.025,201.500 71.025 C 201.370 71.025,199.713 72.945,197.818 75.291 M198.524 107.481 C 197.560 108.000,195.174 109.247,193.220 110.252 C 191.267 111.257,189.451 112.210,189.185 112.369 C 188.918 112.528,185.795 114.063,182.244 115.780 L 175.787 118.902 166.436 118.519 C 161.293 118.308,157.006 118.008,156.910 117.851 C 156.813 117.695,154.120 117.465,150.926 117.339 L 145.117 117.111 142.489 115.537 C 139.145 113.533,137.207 113.614,137.207 115.757 C 137.207 116.664,137.111 116.675,134.332 116.079 C 130.673 115.295,128.332 117.619,131.121 119.267 L 132.138 119.867 131.305 120.304 C 129.829 121.077,129.881 123.006,131.391 123.485 C 131.999 123.678,131.988 123.725,131.181 124.420 C 130.028 125.411,130.314 126.805,131.728 127.088 C 132.701 127.283,132.952 127.644,132.365 128.006 C 131.909 128.288,131.963 129.641,132.446 130.021 C 133.295 130.692,139.082 130.980,140.920 130.444 C 144.053 129.530,145.661 129.459,163.415 129.459 L 181.865 129.459 185.905 127.321 C 188.128 126.146,190.828 124.584,191.906 123.851 C 195.308 121.538,204.574 117.633,203.306 119.048 C 203.027 119.358,202.422 120.697,201.960 122.022 C 201.499 123.347,200.978 124.575,200.803 124.750 C 200.628 124.925,200.484 125.339,200.484 125.670 C 200.484 126.001,200.140 127.026,199.720 127.946 C 199.299 128.867,198.844 130.127,198.709 130.747 C 198.492 131.738,198.066 132.862,196.447 136.723 C 196.224 137.256,195.856 138.269,195.631 138.974 C 195.406 139.679,195.041 140.437,194.821 140.657 C 194.601 140.877,194.241 141.826,194.022 142.764 C 193.667 144.280,193.157 145.602,191.616 148.991 C 191.374 149.524,191.084 150.395,190.972 150.928 C 190.367 153.800,189.829 154.601,188.421 154.729 C 187.687 154.796,194.885 154.876,204.418 154.907 C 220.400 154.959,222.046 154.914,225.564 154.320 C 227.662 153.966,229.415 153.675,229.459 153.674 C 229.859 153.666,229.473 134.463,229.056 133.657 C 228.143 131.891,226.554 129.731,226.029 129.542 C 225.741 129.439,223.864 128.106,221.859 126.582 C 219.854 125.057,217.731 123.519,217.142 123.164 C 216.553 122.809,215.372 121.892,214.519 121.127 C 213.665 120.362,212.552 119.653,212.046 119.552 C 210.758 119.294,210.616 118.866,211.684 118.456 L 212.591 118.108 211.658 117.616 L 210.725 117.123 212.777 116.108 C 213.905 115.550,214.881 114.914,214.946 114.694 C 215.050 114.339,210.373 111.057,209.762 111.057 C 209.627 111.057,208.683 110.494,207.664 109.805 C 205.046 108.036,203.913 107.514,203.133 107.718 C 202.722 107.826,202.077 107.627,201.500 107.217 C 200.328 106.383,200.612 106.357,198.524 107.481 M326.552 119.617 C 326.317 119.975,323.813 120.456,317.191 121.415 L 308.152 122.725 304.691 124.380 C 302.788 125.291,301.278 126.083,301.335 126.140 C 301.393 126.198,307.079 124.974,313.972 123.420 C 323.060 121.372,326.541 120.704,326.637 120.992 C 326.740 121.300,331.787 121.388,349.341 121.388 L 371.913 121.388 371.913 120.258 L 371.913 119.128 349.393 119.128 C 329.639 119.128,326.834 119.188,326.552 119.617 M114.820 120.800 C 115.483 121.121,115.783 121.915,116.866 126.231 C 117.226 127.663,119.352 129.614,121.692 130.659 C 122.659 131.090,123.312 131.541,123.145 131.662 C 122.295 132.273,123.155 133.918,124.452 134.161 C 126.437 134.534,127.425 133.324,126.777 131.316 C 126.619 130.827,126.297 130.428,126.061 130.428 C 125.825 130.428,125.403 130.199,125.124 129.920 C 124.845 129.641,124.617 129.514,124.617 129.636 C 124.617 130.461,120.628 126.499,120.050 125.101 C 119.829 124.568,119.516 124.042,119.354 123.931 C 118.771 123.531,119.502 122.399,120.740 121.787 C 122.734 120.800,121.863 120.416,117.692 120.442 C 114.975 120.458,114.290 120.544,114.820 120.800 M68.539 130.755 C 66.910 131.410,64.243 137.787,63.618 142.517 C 62.832 148.464,64.617 159.827,66.332 159.794 C 66.694 159.787,69.023 159.516,71.509 159.193 C 75.907 158.621,76.050 158.622,76.799 159.206 C 77.942 160.097,78.275 159.970,79.634 158.120 C 81.210 155.974,81.385 153.342,80.449 145.895 C 79.742 140.272,79.648 140.022,77.172 137.152 C 72.216 131.410,70.349 130.026,68.539 130.755 M230.670 168.269 C 229.249 170.601,227.126 174.119,225.952 176.085 C 224.778 178.052,223.308 180.169,222.685 180.791 C 220.623 182.849,219.853 185.892,220.915 187.785 C 221.457 188.749,222.539 189.925,239.673 208.175 L 242.219 210.887 241.226 211.516 L 240.233 212.145 241.182 213.642 C 241.704 214.465,242.131 215.236,242.131 215.355 C 242.131 215.474,239.310 216.538,235.862 217.718 C 232.415 218.899,229.182 220.080,228.679 220.342 C 228.176 220.605,227.597 220.820,227.392 220.821 C 227.188 220.822,226.876 221.239,226.699 221.746 C 226.430 222.515,226.143 222.703,224.972 222.875 C 224.200 222.989,222.768 223.228,221.792 223.406 C 220.815 223.585,216.529 223.824,212.268 223.939 C 208.006 224.053,204.790 224.242,205.121 224.358 C 205.650 224.544,205.564 224.723,204.406 225.844 C 201.103 229.044,200.176 229.863,199.858 229.863 C 199.670 229.863,199.516 230.157,199.516 230.516 C 199.516 230.917,199.203 231.289,198.709 231.477 C 198.265 231.646,197.902 231.944,197.902 232.140 C 197.902 232.551,195.403 235.028,194.989 235.028 C 194.593 235.028,191.921 237.713,191.673 238.360 C 191.559 238.658,191.243 238.902,190.971 238.902 C 190.699 238.902,190.476 239.064,190.476 239.262 C 190.476 239.660,188.244 241.808,187.830 241.808 C 187.688 241.808,187.566 241.990,187.560 242.211 C 187.547 242.743,186.087 244.391,185.630 244.391 C 185.433 244.391,185.365 244.540,185.477 244.722 C 185.697 245.077,185.687 245.077,191.768 244.993 C 200.150 244.878,201.425 244.911,202.155 245.262 C 204.125 246.208,205.976 246.401,210.825 246.166 C 216.472 245.892,217.066 245.625,217.632 243.099 C 218.325 240.003,220.178 239.228,220.178 242.034 L 220.178 243.874 221.044 242.537 C 221.848 241.298,222.077 241.165,224.192 240.719 C 229.105 239.682,231.301 239.468,239.709 239.207 C 254.555 238.747,255.554 238.462,258.840 233.735 C 266.954 222.064,268.490 218.546,265.456 218.581 C 262.613 218.615,260.797 219.675,250.009 227.600 C 249.281 228.134,248.597 228.571,248.489 228.571 C 248.381 228.571,247.524 229.030,246.584 229.592 C 242.120 232.256,237.093 235.028,236.727 235.028 C 236.116 235.028,236.190 230.473,236.825 228.965 C 237.102 228.304,237.466 227.053,237.632 226.184 C 237.851 225.040,238.335 224.136,239.387 222.905 C 241.143 220.849,241.145 220.832,239.629 220.789 L 238.418 220.756 239.709 220.330 C 240.420 220.096,241.371 219.893,241.824 219.880 C 242.277 219.866,242.829 219.673,243.051 219.451 C 243.285 219.217,244.297 219.044,245.456 219.039 C 249.672 219.019,255.690 214.772,255.690 211.816 C 255.690 211.461,255.182 210.328,254.561 209.298 C 253.940 208.268,253.431 207.299,253.431 207.144 C 253.431 206.989,252.577 205.950,251.535 204.836 C 248.890 202.009,248.875 201.779,250.494 189.669 C 251.205 184.346,251.403 184.924,249.022 185.366 L 247.074 185.729 246.489 191.412 C 246.168 194.537,245.808 197.368,245.690 197.702 C 245.513 198.201,244.600 197.375,240.561 193.064 C 235.905 188.094,235.672 187.784,236.103 187.125 C 236.354 186.743,238.305 183.599,240.440 180.140 C 242.574 176.680,245.131 172.542,246.122 170.944 C 247.679 168.432,247.848 168.009,247.367 167.821 C 244.102 166.540,241.598 165.790,237.855 164.972 C 235.415 164.439,233.381 164.009,233.336 164.016 C 233.290 164.023,232.090 165.937,230.670 168.269 M335.494 168.877 C 335.576 169.126,336.140 169.663,336.748 170.071 C 337.356 170.478,338.204 171.089,338.633 171.429 C 340.203 172.674,339.900 170.750,338.297 169.295 C 337.544 168.611,335.296 168.277,335.494 168.877 M325.254 169.829 C 325.139 170.014,325.209 170.363,325.409 170.604 C 325.700 170.954,325.481 171.154,324.323 171.596 C 323.525 171.901,322.611 172.445,322.292 172.805 C 321.849 173.304,322.153 173.216,323.567 172.434 C 324.588 171.870,325.424 171.486,325.424 171.580 C 325.424 171.674,325.714 171.461,326.069 171.106 C 326.425 170.751,326.933 170.460,327.199 170.460 C 327.466 170.460,327.684 170.242,327.684 169.976 C 327.684 169.408,325.592 169.282,325.254 169.829 M137.733 172.539 C 136.691 173.171,135.723 173.688,135.583 173.688 C 135.443 173.688,134.303 174.270,133.049 174.980 C 131.796 175.690,130.679 176.271,130.568 176.271 C 130.457 176.271,129.980 176.543,129.509 176.876 C 129.038 177.208,126.485 178.590,123.837 179.947 C 121.189 181.304,118.864 182.540,118.672 182.694 C 117.625 183.529,112.323 185.986,111.964 185.802 C 111.732 185.683,111.976 185.923,112.507 186.336 C 113.038 186.749,114.055 187.548,114.767 188.112 C 115.479 188.676,117.006 189.730,118.160 190.454 C 119.314 191.179,121.092 192.388,122.110 193.141 C 127.449 197.091,130.220 199.095,132.849 200.905 C 136.308 203.287,136.990 204.396,137.665 208.735 C 137.911 210.323,138.127 211.461,138.145 211.264 C 138.162 211.068,139.302 210.325,140.678 209.613 C 142.054 208.902,144.923 207.375,147.054 206.221 C 149.185 205.067,151.727 203.714,152.704 203.216 C 153.680 202.717,156.659 201.120,159.322 199.667 C 167.348 195.289,168.564 194.632,171.590 193.046 C 173.188 192.208,175.876 190.789,177.563 189.893 C 185.772 185.530,184.941 186.220,186.741 182.271 C 187.672 180.228,187.786 179.761,187.389 179.609 C 186.604 179.307,182.489 180.798,181.022 181.915 C 178.188 184.073,169.162 188.793,165.044 190.271 C 163.752 190.735,162.270 191.334,161.751 191.602 C 158.603 193.230,155.172 191.590,152.303 187.086 C 148.318 180.830,146.954 179.026,143.441 175.364 L 139.629 171.390 137.733 172.539 M338.213 187.834 C 338.083 188.044,338.063 188.216,338.169 188.216 C 338.276 188.216,338.081 188.518,337.737 188.888 C 337.072 189.601,336.628 191.122,337.085 191.122 C 337.234 191.122,337.449 190.755,337.561 190.307 C 337.673 189.859,338.018 189.314,338.327 189.097 C 338.701 188.834,338.815 188.491,338.669 188.076 C 338.518 187.649,338.374 187.573,338.213 187.834 M85.553 189.452 C 85.553 189.743,82.089 195.557,81.535 196.195 C 80.571 197.307,80.379 197.579,80.558 197.579 C 80.666 197.579,80.458 197.995,80.096 198.504 C 78.972 200.081,75.974 206.357,75.293 208.558 C 74.936 209.711,74.133 211.671,73.509 212.914 C 72.884 214.157,72.269 215.755,72.142 216.465 C 72.014 217.175,71.778 217.923,71.617 218.126 C 71.457 218.329,71.348 218.620,71.375 218.772 C 71.402 218.923,71.407 219.450,71.386 219.941 L 71.348 220.834 69.814 220.052 C 65.491 217.846,58.565 210.973,58.065 208.393 C 57.857 207.322,57.317 207.565,56.445 209.121 C 54.479 212.626,54.162 213.897,53.999 218.915 L 53.847 223.625 55.010 224.312 C 55.651 224.689,56.174 225.147,56.174 225.328 C 56.174 225.774,68.143 230.177,70.691 230.668 C 71.490 230.822,75.241 231.813,75.868 232.036 C 76.134 232.131,76.713 232.255,77.154 232.313 C 77.925 232.414,79.406 233.055,79.742 233.434 C 80.331 234.098,84.067 234.867,86.708 234.867 L 89.638 234.867 89.235 236.207 C 87.585 241.688,81.159 249.837,78.765 249.486 C 77.956 249.367,77.482 249.692,77.482 250.366 C 77.482 252.210,90.244 252.804,94.850 251.174 C 96.921 250.441,98.342 249.109,97.565 248.629 C 97.301 248.466,97.467 246.927,98.162 243.088 C 99.253 237.060,100.078 230.556,100.085 227.928 C 100.088 226.950,100.309 225.523,100.576 224.756 C 100.843 223.989,101.152 222.290,101.262 220.981 L 101.464 218.599 102.384 218.985 C 104.045 219.681,106.666 221.839,108.636 224.131 C 109.701 225.371,110.755 226.576,110.977 226.810 C 111.199 227.043,111.380 227.323,111.380 227.432 C 111.380 227.635,111.799 228.183,112.696 229.152 C 112.975 229.454,113.539 230.257,113.947 230.936 C 114.871 232.469,115.009 232.327,116.083 228.733 C 117.526 223.906,117.606 214.689,116.204 214.689 C 116.029 214.689,114.640 214.108,113.117 213.398 C 111.594 212.688,110.217 212.107,110.057 212.107 C 109.897 212.107,109.766 211.977,109.766 211.819 C 109.766 211.660,109.366 211.431,108.878 211.309 C 108.390 211.187,107.736 210.859,107.425 210.579 C 107.115 210.299,106.860 210.168,106.860 210.289 C 106.860 210.410,106.388 210.257,105.811 209.949 C 105.234 209.641,104.689 209.379,104.600 209.365 C 104.512 209.352,103.785 209.105,102.986 208.817 C 102.187 208.528,100.627 208.014,99.518 207.673 L 97.503 207.054 95.049 211.664 C 92.855 215.786,92.479 216.312,91.495 216.636 C 90.073 217.106,90.102 217.554,91.725 220.241 C 93.139 222.580,93.142 223.797,91.737 224.939 C 90.887 225.631,84.965 225.474,83.741 224.728 C 80.244 222.596,80.017 219.402,83.260 217.963 C 85.575 216.936,90.839 207.446,89.793 206.186 C 89.595 205.947,89.528 205.656,89.645 205.539 C 89.762 205.422,89.422 205.327,88.889 205.327 C 87.724 205.327,87.375 205.047,87.840 204.487 C 88.316 203.913,94.961 190.415,94.832 190.285 C 94.219 189.672,85.553 188.894,85.553 189.452 M315.044 206.543 C 310.162 209.284,310.375 209.867,317.194 212.429 C 322.626 214.470,324.066 217.763,321.864 223.103 C 320.160 227.236,318.918 227.849,315.390 226.300 L 313.209 225.343 299.623 225.343 C 290.781 225.343,286.037 225.456,286.037 225.666 C 286.037 225.843,286.185 225.989,286.366 225.989 C 286.546 225.989,289.416 226.949,292.742 228.122 C 298.576 230.180,305.002 232.033,307.341 232.333 C 307.960 232.413,308.582 232.684,308.723 232.935 C 309.223 233.828,313.428 234.853,316.622 234.860 C 319.454 234.866,319.595 234.900,319.409 235.513 C 318.342 239.023,315.847 242.887,311.015 248.516 C 309.874 249.844,309.852 249.915,310.443 250.362 C 311.805 251.393,322.441 250.729,325.581 249.417 C 326.765 248.923,326.657 249.254,327.888 242.292 C 328.202 240.517,328.539 238.991,328.636 238.902 C 328.734 238.814,328.835 238.596,328.862 238.418 C 328.889 238.241,329.075 237.021,329.276 235.707 C 329.477 234.394,329.731 231.706,329.841 229.735 C 329.951 227.763,330.244 225.569,330.492 224.859 C 330.740 224.149,331.030 222.444,331.136 221.071 L 331.330 218.575 332.960 219.457 C 335.214 220.677,339.923 225.523,342.266 229.035 C 343.339 230.644,344.333 232.005,344.474 232.058 C 345.606 232.487,347.861 219.792,347.240 216.484 C 346.806 214.168,330.663 207.189,323.961 206.419 C 322.901 206.298,321.471 206.002,320.783 205.762 C 318.721 205.045,317.389 205.226,315.044 206.543 M303.328 214.231 C 302.743 214.659,302.775 214.689,303.812 214.684 C 304.423 214.682,304.778 214.571,304.600 214.438 C 304.423 214.306,304.205 214.102,304.116 213.986 C 304.027 213.869,303.672 213.980,303.328 214.231 M314.271 218.064 C 312.747 219.589,313.601 222.452,315.719 222.917 C 317.797 223.374,319.752 221.113,318.997 219.127 C 318.275 217.227,315.690 216.646,314.271 218.064 M317.941 219.307 C 318.312 220.085,318.300 220.323,317.855 221.002 C 316.942 222.396,314.447 221.862,314.447 220.272 C 314.447 218.210,317.072 217.485,317.941 219.307 M85.617 218.951 C 84.487 220.081,86.061 222.234,87.468 221.481 C 88.762 220.788,88.163 218.563,86.683 218.563 C 86.310 218.563,85.831 218.738,85.617 218.951 " stroke="none" fill="#d6b1cc" fill-rule="evenodd"></path><path id="path1" d="M182.214 31.268 C 182.308 31.419,183.079 31.804,183.928 32.123 C 190.592 34.628,197.864 43.302,199.188 50.327 C 199.743 53.270,199.742 53.270,198.125 52.688 C 196.397 52.067,194.644 52.759,193.467 54.527 C 191.671 57.223,194.116 60.667,197.519 60.233 C 198.736 60.077,198.890 60.126,198.738 60.617 C 198.643 60.926,198.256 62.189,197.877 63.425 C 196.192 68.923,193.063 74.293,187.000 82.094 C 184.763 84.973,182.432 87.982,181.821 88.781 C 181.209 89.580,180.359 90.651,179.931 91.160 L 179.154 92.086 177.155 90.192 C 176.055 89.150,175.190 88.184,175.232 88.045 C 175.275 87.906,174.880 88.015,174.354 88.287 C 173.829 88.558,171.774 88.994,169.787 89.255 C 167.801 89.516,166.102 89.803,166.011 89.894 C 165.256 90.649,169.764 94.248,174.330 96.536 C 175.482 97.113,176.580 97.797,176.770 98.056 C 177.489 99.040,178.638 98.337,181.373 95.238 C 187.104 88.743,193.572 80.941,194.217 79.745 C 195.111 78.087,201.134 70.599,201.378 70.842 C 201.482 70.947,201.945 70.388,202.405 69.600 C 202.866 68.811,203.776 67.648,204.429 67.014 C 206.841 64.672,211.144 57.687,211.132 56.135 C 211.114 53.868,205.962 42.292,204.971 42.292 C 204.846 42.292,204.225 41.510,203.590 40.554 C 199.683 34.667,192.783 30.993,185.638 30.993 C 183.662 30.993,182.121 31.116,182.214 31.268 M172.801 34.404 C 172.046 34.856,171.429 35.304,171.429 35.400 C 171.429 35.543,174.176 34.075,174.630 33.690 C 175.144 33.253,173.928 33.728,172.801 34.404 M168.823 37.237 C 167.681 38.181,166.534 39.232,166.273 39.573 C 165.739 40.271,166.097 40.000,168.721 37.718 C 169.451 37.082,170.322 36.410,170.655 36.223 C 170.989 36.037,171.180 35.802,171.080 35.702 C 170.980 35.602,169.965 36.293,168.823 37.237 M163.368 42.696 C 161.836 44.183,158.536 49.524,158.915 49.902 C 158.982 49.969,159.510 49.101,160.089 47.973 C 161.263 45.683,161.674 45.087,163.479 43.055 C 164.955 41.395,164.898 41.211,163.368 42.696 M176.675 50.682 C 176.098 51.034,175.626 51.415,175.626 51.528 C 175.626 51.641,175.822 51.571,176.062 51.371 C 176.302 51.172,177.428 50.805,178.564 50.557 L 180.630 50.105 179.177 50.074 C 178.251 50.054,177.344 50.275,176.675 50.682 M184.561 70.299 C 184.337 70.678,183.924 72.820,184.109 72.639 C 184.321 72.433,184.974 70.056,184.820 70.056 C 184.756 70.056,184.639 70.165,184.561 70.299 M182.765 75.922 C 182.745 76.218,182.644 76.727,182.542 77.052 C 182.366 77.612,182.376 77.613,182.725 77.068 C 182.928 76.752,183.029 76.243,182.949 75.938 C 182.817 75.438,182.799 75.437,182.765 75.922 M181.342 79.589 C 180.865 80.561,180.544 81.356,180.628 81.356 C 180.845 81.356,182.473 78.088,182.328 77.943 C 182.262 77.877,181.818 78.618,181.342 79.589 M195.543 82.324 C 195.447 82.591,195.280 83.348,195.170 84.007 L 194.971 85.205 195.963 84.859 C 196.635 84.625,196.861 84.396,196.664 84.146 C 196.504 83.943,196.226 83.341,196.045 82.809 C 195.820 82.145,195.662 81.993,195.543 82.324 M195.321 86.279 C 195.320 86.590,195.609 87.135,195.964 87.490 C 196.789 88.315,196.789 87.928,195.964 86.683 C 195.506 85.990,195.322 85.875,195.321 86.279 M246.721 93.140 C 247.871 94.696,247.865 94.707,244.391 97.413 C 243.769 97.897,242.523 99.059,241.621 99.994 C 240.718 100.930,239.908 101.695,239.820 101.695 C 239.732 101.695,238.650 102.676,237.416 103.874 C 236.182 105.073,234.677 106.416,234.071 106.860 C 233.465 107.304,232.001 108.612,230.817 109.766 C 227.227 113.267,224.655 115.577,224.345 115.577 C 224.184 115.577,224.052 115.808,224.052 116.091 C 224.052 116.389,223.117 115.645,221.821 114.315 C 220.593 113.056,219.440 112.026,219.257 112.026 C 218.452 112.026,218.564 112.847,219.557 114.238 C 221.867 117.474,226.306 124.038,227.390 125.823 C 228.018 126.857,229.191 128.425,229.997 129.307 L 231.463 130.912 231.470 129.840 C 231.477 128.803,230.341 126.430,229.202 125.101 C 228.152 123.876,225.339 119.128,225.664 119.128 C 225.842 119.128,225.989 119.276,225.989 119.457 C 225.989 119.638,226.606 119.165,227.361 118.408 C 228.788 116.974,233.074 113.113,235.024 111.503 C 235.644 110.991,236.748 109.992,237.479 109.282 C 238.209 108.571,239.645 107.264,240.668 106.376 C 242.696 104.618,242.663 104.647,246.785 100.888 C 250.412 97.579,250.391 97.590,251.421 98.516 C 252.173 99.191,252.156 99.133,251.269 97.982 C 250.229 96.634,245.887 92.011,246.721 93.140 M345.746 110.102 C 338.921 110.711,329.621 113.592,329.621 115.097 C 329.621 115.183,338.422 115.254,349.179 115.254 C 364.680 115.254,368.712 115.170,368.610 114.851 C 368.410 114.222,364.147 112.201,361.695 111.572 C 360.478 111.260,359.193 110.872,358.838 110.709 C 356.999 109.866,351.334 109.604,345.746 110.102 M179.015 112.349 C 178.785 112.722,183.644 112.729,186.925 112.360 C 188.615 112.170,188.069 112.115,184.119 112.075 C 181.143 112.045,179.136 112.153,179.015 112.349 M110.199 112.981 C 109.638 113.114,107.604 114.343,105.679 115.711 C 102.850 117.722,102.024 118.161,101.372 118.000 C 99.314 117.493,99.412 117.395,96.911 122.448 C 95.611 125.074,94.474 127.689,94.383 128.260 L 94.218 129.298 96.502 129.383 C 103.201 129.632,108.409 132.434,111.517 137.462 C 111.987 138.223,112.694 138.981,113.087 139.146 C 114.316 139.662,121.097 141.157,121.298 140.957 C 121.549 140.706,120.224 137.623,117.541 132.212 L 115.363 127.819 116.090 127.267 L 116.816 126.715 115.920 123.971 C 115.281 122.013,114.826 121.135,114.332 120.908 C 112.974 120.283,113.693 120.097,117.475 120.097 C 121.562 120.097,123.089 120.623,121.593 121.516 C 120.283 122.297,119.451 123.072,119.451 123.510 C 119.451 124.039,119.962 124.127,120.258 123.648 C 121.092 122.300,123.533 123.287,127.245 126.473 C 133.257 131.634,134.297 132.195,136.717 131.588 C 138.152 131.228,137.266 130.751,135.162 130.751 C 132.544 130.751,131.577 130.140,131.820 128.640 C 131.958 127.789,131.872 127.553,131.375 127.423 C 130.313 127.145,129.961 125.615,130.723 124.585 C 131.266 123.851,131.294 123.678,130.897 123.526 C 129.461 122.974,129.816 120.109,131.323 120.090 C 132.017 120.081,130.894 119.116,129.056 118.142 C 128.306 117.745,127.845 117.267,127.845 116.888 C 127.845 116.205,127.640 116.146,123.234 115.561 C 121.043 115.270,119.847 114.899,117.971 113.928 C 115.434 112.616,112.984 112.317,110.199 112.981 M257.602 117.939 C 255.199 120.102,250.345 124.487,246.814 127.684 C 229.092 143.728,231.154 142.240,231.154 138.983 C 231.154 137.046,231.057 136.562,230.670 136.562 C 230.180 136.562,230.177 136.636,230.037 151.959 C 230.010 154.816,229.001 154.956,205.650 155.333 C 185.738 155.654,184.709 155.602,181.437 154.104 C 180.460 153.658,178.426 152.855,176.917 152.321 C 175.408 151.787,173.737 151.096,173.204 150.786 C 172.672 150.475,171.727 150.029,171.106 149.795 C 170.484 149.560,169.104 148.764,168.039 148.026 C 166.973 147.287,164.286 145.625,162.066 144.332 C 159.847 143.039,157.086 141.422,155.932 140.739 C 154.778 140.056,152.454 138.889,150.767 138.146 C 149.080 137.403,147.337 136.550,146.893 136.250 C 146.449 135.951,145.618 135.520,145.047 135.292 C 144.476 135.064,143.838 134.673,143.630 134.423 C 143.423 134.172,142.756 133.732,142.150 133.444 C 141.382 133.079,141.100 132.763,141.223 132.401 C 141.320 132.115,140.817 132.534,140.106 133.333 C 137.720 136.012,137.649 138.200,139.866 140.773 C 141.385 142.538,141.571 142.615,142.427 141.840 C 142.981 141.338,143.126 141.393,144.873 142.765 C 148.894 145.919,154.442 149.164,158.283 150.606 C 160.143 151.304,160.361 151.589,159.643 152.383 C 159.113 152.969,159.339 153.113,166.149 156.523 C 170.029 158.466,179.575 163.268,187.362 167.195 L 201.520 174.334 203.780 174.334 C 209.370 174.334,215.051 177.270,218.910 182.151 C 220.122 183.685,220.152 183.700,220.517 182.979 C 220.721 182.575,221.389 181.735,222.002 181.114 C 222.614 180.492,224.332 178.023,225.820 175.626 C 229.168 170.228,232.662 164.631,233.042 164.054 C 233.482 163.386,246.886 166.628,248.198 167.719 C 248.277 167.785,238.070 184.616,236.471 187.056 C 235.972 187.818,236.033 187.902,240.743 192.896 L 245.521 197.962 246.192 191.799 C 246.967 184.690,246.659 185.391,249.204 184.942 C 251.740 184.496,251.601 184.097,250.858 189.698 C 249.204 202.163,249.186 201.884,251.846 204.737 C 252.893 205.861,253.754 206.998,253.758 207.264 C 253.779 208.628,255.674 210.815,256.833 210.815 C 259.109 210.815,262.865 213.726,262.978 215.577 C 263.008 216.065,263.051 216.942,263.074 217.525 C 263.112 218.488,263.176 218.554,263.772 218.235 C 264.133 218.041,265.114 217.927,265.951 217.981 L 267.474 218.079 267.364 219.321 C 267.240 220.733,264.370 226.592,262.553 229.146 C 261.886 230.083,260.493 232.077,259.459 233.577 C 255.867 238.784,254.918 239.075,240.032 239.538 C 231.850 239.792,223.523 240.661,222.344 241.383 C 221.235 242.062,220.396 244.240,221.008 244.852 C 221.906 245.750,255.303 245.604,257.183 244.694 C 259.031 243.800,260.210 241.519,260.210 238.839 L 260.210 236.965 261.862 236.965 C 263.419 236.965,263.625 236.862,265.460 235.163 L 267.407 233.360 268.430 236.373 C 270.381 242.119,273.614 248.071,276.717 251.629 C 280.795 256.305,284.953 260.139,287.167 261.266 C 287.700 261.537,288.548 262.142,289.052 262.610 C 295.393 268.496,313.861 271.840,326.471 269.385 C 336.718 267.389,348.394 260.784,353.939 253.845 C 361.802 244.005,364.794 237.549,366.255 227.270 C 367.932 215.473,364.547 199.501,359.004 193.059 C 358.470 192.437,358.032 191.794,358.031 191.628 C 358.028 190.083,349.236 181.217,344.692 178.176 C 341.556 176.077,341.137 175.922,341.512 176.998 C 342.173 178.893,341.669 182.409,340.349 185.115 C 338.493 188.920,338.595 189.914,341.056 192.014 C 356.961 205.586,357.915 230.815,343.099 245.978 C 322.803 266.749,287.396 257.519,280.042 229.540 C 279.208 226.370,279.168 226.524,281.055 225.690 C 282.438 225.078,283.277 225.048,299.996 225.029 C 319.485 225.005,318.986 225.060,320.496 222.793 C 322.403 219.930,320.300 215.019,317.164 215.013 C 316.319 215.012,315.983 214.692,316.347 214.235 C 317.314 213.020,317.082 212.539,315.180 211.815 C 314.156 211.426,312.806 210.770,312.180 210.359 L 311.043 209.612 308.649 211.194 C 307.333 212.063,306.057 212.699,305.815 212.606 C 305.572 212.513,305.457 212.570,305.558 212.734 C 305.659 212.897,305.442 213.241,305.076 213.497 C 304.346 214.008,304.760 214.366,306.080 214.366 C 306.420 214.366,306.699 214.512,306.699 214.689 C 306.699 214.871,305.790 215.012,304.619 215.012 C 302.489 215.012,301.743 215.296,298.889 217.189 C 298.214 217.636,297.527 217.874,297.306 217.737 C 297.038 217.572,296.998 217.631,297.178 217.923 C 297.372 218.236,297.294 218.293,296.888 218.138 C 296.515 217.994,296.410 218.047,296.566 218.299 C 296.725 218.558,296.609 218.601,296.189 218.440 C 295.854 218.311,295.680 218.306,295.802 218.428 C 296.104 218.730,294.951 219.560,292.785 220.601 C 289.977 221.949,289.820 221.886,289.061 219.100 C 287.835 214.605,287.296 210.169,287.974 210.169 C 288.162 210.169,288.297 209.093,288.297 207.587 C 288.297 206.048,288.164 205.004,287.968 205.004 C 287.464 205.004,289.634 198.266,290.903 195.888 C 291.297 195.150,291.285 194.350,290.880 194.350 C 290.199 194.350,290.598 193.047,291.445 192.509 C 291.933 192.199,292.467 191.723,292.632 191.452 C 293.548 189.945,298.399 186.100,298.953 186.442 C 299.130 186.551,299.274 186.462,299.274 186.245 C 299.274 186.027,299.358 185.934,299.462 186.037 C 299.566 186.141,299.934 185.942,300.281 185.595 C 300.628 185.248,301.074 185.065,301.272 185.187 C 301.492 185.323,301.543 185.264,301.403 185.038 C 301.269 184.821,301.369 184.665,301.641 184.665 C 301.899 184.665,302.191 184.454,302.290 184.197 C 302.532 183.564,305.785 181.722,306.312 181.919 C 306.543 182.005,306.648 181.939,306.545 181.772 C 306.375 181.496,307.492 180.668,308.071 180.641 C 308.204 180.635,308.326 180.484,308.341 180.307 C 308.402 179.588,309.144 179.090,316.160 175.057 C 316.549 174.832,317.123 174.710,317.433 174.784 C 317.744 174.859,317.998 174.772,317.998 174.592 C 317.998 174.412,318.216 174.349,318.483 174.451 C 318.749 174.553,318.967 174.509,318.967 174.353 C 318.967 174.197,319.584 173.764,320.339 173.391 C 323.056 172.049,324.961 170.426,324.272 170.041 C 323.217 169.451,312.442 169.369,308.802 169.923 C 307.028 170.194,305.556 170.389,305.529 170.357 C 305.503 170.325,304.653 168.337,303.640 165.940 C 299.610 156.400,298.191 153.126,297.483 151.735 C 297.076 150.936,296.061 148.684,295.227 146.731 C 294.392 144.778,293.618 143.081,293.505 142.960 C 293.393 142.839,292.246 143.450,290.957 144.318 C 289.635 145.208,288.087 145.974,287.406 146.075 C 286.742 146.174,283.947 146.781,281.195 147.424 C 278.442 148.067,273.958 149.064,271.229 149.639 L 266.267 150.685 266.467 149.228 C 266.577 148.427,266.667 147.172,266.667 146.440 L 266.667 145.108 271.913 142.057 C 276.976 139.112,283.094 135.302,285.361 133.681 L 286.454 132.899 285.738 132.319 C 284.092 130.986,283.047 131.085,271.062 133.705 C 267.886 134.400,265.249 134.927,265.201 134.877 C 265.153 134.827,265.315 132.897,265.560 130.589 C 266.326 123.392,266.178 122.349,263.571 116.540 C 262.257 113.613,262.459 113.565,257.602 117.939 M109.682 120.591 C 110.257 120.993,111.242 123.248,110.965 123.525 C 110.897 123.593,108.684 122.155,106.546 120.657 L 105.748 120.097 107.362 120.097 C 108.289 120.097,109.277 120.307,109.682 120.591 M318.160 130.127 C 305.860 135.328,297.817 139.172,298.776 139.394 C 299.123 139.475,303.191 139.270,307.815 138.939 C 312.439 138.608,319.128 138.343,322.680 138.350 L 329.136 138.362 332.328 139.454 C 337.134 141.099,348.208 148.472,347.864 149.798 C 347.176 152.450,347.334 153.829,348.408 154.551 C 348.995 154.945,351.324 157.092,353.583 159.322 C 355.842 161.552,358.384 163.971,359.232 164.697 C 360.081 165.424,362.339 167.520,364.250 169.356 C 368.061 173.015,369.241 173.598,370.784 172.587 C 372.123 171.710,371.888 170.047,369.824 165.784 C 368.852 163.779,367.773 161.432,367.425 160.569 C 367.078 159.705,365.839 156.970,364.674 154.490 L 362.554 149.980 363.851 148.659 L 365.147 147.338 364.587 145.202 L 364.027 143.066 361.798 142.962 C 359.676 142.862,359.475 142.918,357.589 144.125 C 352.722 147.243,350.691 147.453,347.983 145.119 C 343.258 141.047,342.106 139.915,340.662 137.922 C 339.828 136.770,338.762 135.375,338.293 134.822 L 337.442 133.818 340.640 133.929 C 344.003 134.046,348.990 133.247,352.373 132.050 C 355.231 131.039,359.777 130.105,361.840 130.105 C 363.598 130.105,363.842 130.029,363.842 129.486 C 363.842 129.146,364.023 128.794,364.245 128.705 C 364.467 128.615,364.292 128.530,363.857 128.516 C 363.290 128.498,363.794 128.131,365.632 127.223 L 368.200 125.955 349.435 125.932 C 339.114 125.919,330.252 125.844,329.742 125.766 C 329.063 125.661,325.949 126.834,318.160 130.127 M346.807 130.491 C 345.696 130.694,344.802 130.690,344.225 130.479 C 343.512 130.218,343.839 130.158,345.924 130.169 L 348.507 130.182 346.807 130.491 M278.238 161.276 C 278.444 161.729,280.140 164.439,282.006 167.298 C 283.872 170.158,285.345 172.551,285.280 172.616 C 284.753 173.144,273.414 176.595,272.194 176.600 C 271.373 176.603,269.685 176.826,268.442 177.096 C 267.199 177.366,265.779 177.673,265.287 177.778 L 264.391 177.969 264.601 176.071 C 264.793 174.340,265.990 171.432,266.846 170.621 C 267.034 170.444,268.050 169.221,269.106 167.903 C 270.161 166.586,271.897 164.791,272.962 163.915 C 274.027 163.040,275.206 162.066,275.581 161.752 C 276.333 161.121,277.377 160.477,277.672 160.462 C 277.777 160.456,278.031 160.823,278.238 161.276 M289.559 165.714 C 290.094 168.067,289.988 168.183,288.904 166.425 C 288.357 165.537,287.742 164.665,287.538 164.487 C 287.114 164.119,285.391 161.526,285.391 161.256 C 285.391 160.246,289.255 164.380,289.559 165.714 M75.383 163.580 C 67.012 164.666,59.559 167.702,53.771 172.383 C 52.005 173.811,50.443 174.980,50.300 174.980 C 50.157 174.980,50.040 175.198,50.040 175.464 C 50.040 175.730,50.204 175.948,50.404 175.948 C 50.959 175.948,61.325 175.004,62.793 174.820 C 63.997 174.669,63.908 174.750,61.484 176.033 C 58.961 177.367,54.480 180.474,53.993 181.226 C 53.861 181.431,52.634 182.585,51.267 183.792 C 45.031 189.295,39.611 198.701,37.183 208.232 C 35.802 213.654,35.889 227.017,37.340 232.446 C 39.006 238.675,41.323 243.633,44.996 248.829 C 45.906 250.116,47.048 251.732,47.533 252.421 C 49.613 255.374,57.733 261.988,62.308 264.458 C 77.125 272.455,96.812 272.289,111.424 264.043 C 112.732 263.305,113.874 262.611,113.963 262.500 C 114.052 262.390,114.930 261.753,115.914 261.085 C 122.437 256.661,129.548 248.088,132.279 241.357 C 132.719 240.273,133.203 239.309,133.354 239.214 C 134.155 238.713,135.691 232.870,135.642 230.508 C 135.615 229.177,135.797 226.925,136.048 225.504 C 136.298 224.084,136.685 220.232,136.906 216.944 C 137.670 205.584,137.107 203.912,131.200 200.003 C 129.088 198.606,126.416 196.708,125.262 195.785 C 124.108 194.863,121.711 193.150,119.935 191.981 C 118.160 190.811,115.617 189.073,114.286 188.120 C 112.954 187.166,110.702 185.759,109.282 184.993 C 106.895 183.705,99.731 178.254,92.333 172.096 C 90.646 170.691,88.249 168.854,87.006 168.012 C 85.763 167.170,83.927 165.778,82.926 164.919 L 81.107 163.358 78.729 163.406 C 77.422 163.433,75.916 163.511,75.383 163.580 M298.510 171.607 L 299.273 172.430 298.154 172.898 C 296.283 173.679,295.770 173.279,296.582 171.671 C 297.138 170.569,297.536 170.556,298.510 171.607 M200.919 179.312 C 194.031 180.983,189.265 187.084,189.172 194.350 C 189.146 196.308,186.620 198.951,184.679 199.050 C 182.731 199.150,182.405 199.207,182.405 199.451 C 182.405 199.593,182.950 199.657,183.616 199.594 L 184.826 199.480 184.013 200.224 C 183.566 200.634,182.832 201.259,182.382 201.614 C 179.289 204.057,178.928 208.334,181.635 210.464 C 182.971 211.515,184.862 211.348,188.405 209.868 C 191.629 208.521,191.950 208.591,190.988 210.428 C 189.370 213.515,185.044 215.221,181.861 214.025 C 181.043 213.717,181.001 213.733,181.444 214.183 C 183.939 216.714,190.408 213.729,191.913 209.352 C 192.237 208.409,192.637 208.040,194.045 207.388 L 195.777 206.585 197.889 207.554 C 210.838 213.499,224.009 200.172,217.878 187.327 C 214.945 181.180,207.576 177.698,200.919 179.312 M95.373 183.661 C 96.779 184.036,97.988 184.402,98.059 184.473 C 98.198 184.612,90.770 199.603,89.663 201.417 C 88.996 202.512,89.352 203.390,90.465 203.390 C 90.612 203.390,90.495 203.754,90.203 204.199 C 89.774 204.854,89.742 205.177,90.037 205.894 C 90.620 207.311,90.242 208.248,86.384 214.936 C 85.008 217.323,84.679 217.675,83.262 218.285 C 80.130 219.632,81.950 224.407,85.714 224.715 C 89.652 225.038,92.230 222.171,90.751 219.116 C 89.837 217.227,89.879 217.021,91.297 216.454 C 92.420 216.005,92.696 215.613,94.606 211.750 C 97.094 206.720,97.017 206.800,98.794 207.427 C 99.557 207.696,100.206 207.879,100.237 207.832 C 101.799 205.460,106.215 196.812,106.215 196.125 C 106.215 195.517,108.657 190.601,109.093 190.332 C 109.265 190.226,110.840 191.558,112.593 193.294 C 136.643 217.097,120.163 257.202,86.360 257.131 C 53.645 257.062,36.826 218.408,59.122 194.533 C 68.175 184.840,83.069 180.373,95.373 183.661 M271.113 188.945 C 271.210 195.626,270.975 196.731,269.370 197.133 C 268.081 197.457,267.968 196.935,267.964 190.638 C 267.960 183.977,268.348 182.581,270.145 182.788 L 271.025 182.889 271.113 188.945 M266.271 192.726 C 266.366 198.344,266.105 199.516,264.757 199.516 C 263.025 199.516,263.374 188.164,265.126 187.465 C 266.075 187.087,266.185 187.588,266.271 192.726 M223.245 194.088 C 223.245 198.022,222.182 201.557,220.782 202.281 C 219.439 202.975,217.631 204.643,217.094 205.682 C 216.089 207.625,216.477 209.778,218.435 213.124 C 218.630 213.459,218.890 215.503,219.012 217.667 C 219.279 222.389,218.924 221.987,222.287 221.369 C 223.813 221.089,225.262 220.936,225.506 221.030 C 225.750 221.123,226.793 220.836,227.825 220.390 C 230.366 219.293,234.834 217.624,236.804 217.037 C 237.692 216.772,239.187 216.268,240.127 215.917 L 241.836 215.278 241.015 213.877 C 239.997 212.140,239.998 212.052,241.045 211.417 L 241.896 210.901 239.512 208.356 C 238.201 206.956,235.308 203.923,233.083 201.614 C 230.859 199.306,227.735 195.992,226.142 194.249 L 223.245 191.081 223.245 194.088 M262.397 196.499 C 262.491 201.627,262.133 202.857,260.706 202.309 C 259.834 201.975,259.992 193.423,260.891 192.280 C 262.099 190.745,262.302 191.314,262.397 196.499 M318.455 217.888 C 320.049 219.552,319.551 222.091,317.460 222.965 C 315.246 223.890,313.156 222.433,313.156 219.964 C 313.156 217.184,316.518 215.867,318.455 217.888 M88.401 219.307 C 89.020 220.604,88.226 221.792,86.740 221.792 C 85.404 221.792,84.907 221.297,84.907 219.968 C 84.907 218.060,87.567 217.557,88.401 219.307 M315.277 219.071 C 314.541 219.807,314.655 220.733,315.555 221.323 C 317.005 222.272,318.467 220.780,317.514 219.325 C 316.938 218.446,316.008 218.340,315.277 219.071 " stroke="none" fill="#2a2a2a" fill-rule="evenodd"></path><path id="path2" d="M77.563 41.072 C 77.163 41.265,76.838 41.654,76.841 41.938 C 76.844 42.222,77.132 48.337,77.482 55.529 C 77.831 62.720,78.403 74.705,78.753 82.163 C 79.103 89.621,79.462 97.175,79.551 98.951 C 79.641 100.726,79.945 107.554,80.228 114.124 C 80.510 120.694,80.813 126.542,80.902 127.119 L 81.062 128.168 83.065 128.153 C 84.167 128.145,85.504 127.941,86.037 127.699 L 87.006 127.260 85.827 127.428 L 84.648 127.596 84.448 124.896 C 84.338 123.411,83.885 114.132,83.441 104.278 C 82.998 94.423,82.495 83.495,82.323 79.994 C 81.919 71.736,81.438 61.634,81.036 52.946 C 80.860 49.128,80.628 44.806,80.522 43.341 L 80.329 40.678 79.309 40.700 C 78.748 40.712,77.962 40.879,77.563 41.072 M87.976 42.264 C 88.120 42.515,88.289 43.750,88.350 45.008 C 88.411 46.267,88.823 55.141,89.265 64.730 C 89.966 79.919,90.835 97.737,91.145 103.309 C 91.200 104.286,91.271 91.969,91.304 75.938 L 91.364 46.790 90.587 45.268 C 90.160 44.430,89.338 43.309,88.761 42.776 C 88.185 42.244,87.831 42.013,87.976 42.264 M168.082 59.322 C 162.227 65.681,160.669 67.177,159.700 67.377 C 159.051 67.510,158.910 67.642,159.215 67.831 C 159.492 68.003,159.657 68.817,159.678 70.126 C 159.697 71.242,159.794 72.446,159.893 72.801 C 160.700 75.668,162.365 79.682,163.622 81.792 L 165.133 84.326 165.668 82.437 C 165.962 81.399,166.451 79.169,166.754 77.482 C 167.058 75.795,167.861 71.582,168.539 68.119 C 169.217 64.657,169.853 61.146,169.952 60.317 C 170.051 59.489,170.275 58.435,170.450 57.977 C 170.624 57.518,170.673 57.143,170.557 57.143 C 170.442 57.143,170.689 56.780,171.106 56.336 C 171.523 55.892,171.799 55.529,171.720 55.529 C 171.641 55.529,170.004 57.236,168.082 59.322 M91.445 106.429 C 91.169 106.540,91.061 107.275,91.102 108.744 L 91.163 110.896 91.282 108.970 C 91.347 107.911,91.555 106.858,91.745 106.629 C 92.110 106.189,92.083 106.171,91.445 106.429 M179.212 107.311 C 178.118 107.918,177.587 109.046,177.574 110.796 C 177.562 112.358,177.995 113.014,178.624 112.385 C 178.858 112.151,180.784 112.028,184.165 112.031 C 187.629 112.034,189.186 112.139,188.862 112.349 C 188.596 112.521,188.530 112.664,188.717 112.667 C 188.903 112.669,189.194 112.534,189.362 112.365 C 189.531 112.196,191.303 111.256,193.301 110.276 C 197.341 108.293,197.200 108.426,196.226 107.519 C 195.337 106.690,180.655 106.511,179.212 107.311 M184.342 114.447 C 183.898 114.701,183.680 114.909,183.858 114.909 C 184.036 114.909,184.544 114.701,184.988 114.447 C 185.432 114.193,185.650 113.986,185.472 113.986 C 185.295 113.986,184.786 114.193,184.342 114.447 M162.308 118.393 C 162.885 118.465,163.830 118.465,164.407 118.393 C 164.984 118.322,164.512 118.263,163.358 118.263 C 162.203 118.263,161.731 118.322,162.308 118.393 M211.521 118.500 C 210.798 118.790,210.807 119.451,211.534 119.451 C 211.730 119.451,211.797 119.357,211.681 119.241 C 211.565 119.125,211.723 118.839,212.031 118.606 C 212.683 118.111,212.557 118.085,211.521 118.500 M169.417 118.717 C 169.997 118.788,170.869 118.787,171.354 118.713 C 171.839 118.640,171.364 118.581,170.299 118.583 C 169.233 118.584,168.836 118.645,169.417 118.717 M203.067 118.707 C 197.750 120.606,194.430 122.135,191.929 123.834 C 190.864 124.558,188.249 126.084,186.118 127.224 L 182.244 129.298 163.035 129.488 C 145.352 129.662,141.194 129.863,140.513 130.577 C 140.382 130.715,140.819 130.767,141.485 130.693 C 142.910 130.533,142.975 130.699,141.888 131.720 L 141.080 132.479 142.291 133.213 C 142.958 133.616,144.229 134.334,145.117 134.807 C 146.005 135.280,146.949 135.852,147.215 136.078 C 147.482 136.304,148.983 137.036,150.552 137.705 C 152.121 138.374,154.289 139.494,155.371 140.193 C 156.452 140.891,157.695 141.599,158.132 141.766 C 159.292 142.207,166.477 146.503,168.362 147.883 C 170.119 149.170,174.494 151.256,178.055 152.506 C 179.293 152.940,181.396 153.708,182.728 154.211 L 185.149 155.125 202.583 155.135 L 220.016 155.144 203.551 154.969 C 194.496 154.872,187.684 154.759,188.415 154.717 C 189.819 154.636,190.359 153.837,190.972 150.928 C 191.084 150.395,191.374 149.524,191.616 148.991 C 193.157 145.602,193.667 144.280,194.022 142.764 C 194.241 141.826,194.601 140.877,194.821 140.657 C 195.041 140.437,195.406 139.679,195.631 138.974 C 195.856 138.269,196.224 137.256,196.447 136.723 C 198.066 132.862,198.492 131.738,198.709 130.747 C 198.844 130.127,199.299 128.867,199.720 127.946 C 200.140 127.026,200.484 126.001,200.484 125.670 C 200.484 125.339,200.628 124.925,200.803 124.750 C 200.978 124.575,201.499 123.347,201.960 122.022 C 202.422 120.697,203.027 119.358,203.306 119.048 C 203.842 118.450,203.831 118.434,203.067 118.707 M305.650 123.508 C 304.806 123.947,304.116 124.378,304.116 124.467 C 304.116 124.611,307.312 123.101,307.641 122.802 C 308.040 122.438,306.990 122.810,305.650 123.508 M218.886 124.291 C 220.183 125.460,221.792 126.662,221.792 126.462 C 221.792 126.387,220.884 125.639,219.774 124.800 C 218.664 123.960,218.265 123.731,218.886 124.291 M305.085 125.424 C 304.286 125.655,303.850 125.856,304.116 125.870 C 304.383 125.884,305.327 125.693,306.215 125.446 C 307.103 125.199,307.538 124.998,307.183 125.000 C 306.828 125.002,305.884 125.192,305.085 125.424 M300.280 126.467 C 299.847 126.797,299.950 126.830,300.888 126.656 C 303.160 126.237,303.732 125.961,302.217 126.017 C 301.438 126.046,300.567 126.248,300.280 126.467 M74.899 134.726 C 74.899 134.781,75.371 135.253,75.948 135.775 L 76.998 136.723 76.049 135.674 C 75.165 134.696,74.899 134.476,74.899 134.726 M229.683 144.149 C 229.683 149.475,229.727 151.700,229.781 149.092 C 229.835 146.484,229.836 142.125,229.782 139.407 C 229.727 136.688,229.683 138.822,229.683 144.149 M80.139 143.341 C 80.139 143.963,80.206 144.217,80.287 143.906 C 80.368 143.596,80.368 143.087,80.287 142.776 C 80.206 142.466,80.139 142.720,80.139 143.341 M80.785 148.507 C 80.785 149.128,80.852 149.383,80.933 149.072 C 81.014 148.761,81.014 148.253,80.933 147.942 C 80.852 147.631,80.785 147.885,80.785 148.507 M88.458 148.373 C 86.409 149.126,85.099 149.785,83.212 151.013 L 81.033 152.431 81.033 154.052 C 81.033 155.941,80.453 157.319,78.981 158.926 L 77.925 160.078 79.487 161.476 C 80.346 162.244,81.735 163.503,82.574 164.272 C 83.414 165.041,85.262 166.478,86.683 167.466 C 88.103 168.453,90.210 170.082,91.364 171.087 C 92.518 172.091,94.407 173.621,95.561 174.486 C 98.645 176.799,101.991 179.471,103.542 180.859 C 105.526 182.634,112.407 186.834,111.846 185.927 C 111.687 185.669,111.738 185.617,111.995 185.776 C 112.330 185.983,117.596 183.552,118.672 182.694 C 118.864 182.540,121.189 181.304,123.837 179.947 C 126.485 178.590,129.038 177.208,129.509 176.876 C 129.980 176.543,130.457 176.271,130.568 176.271 C 130.679 176.271,131.796 175.690,133.049 174.980 C 134.303 174.270,135.443 173.688,135.583 173.688 C 135.723 173.688,136.685 173.178,137.720 172.555 L 139.602 171.422 141.386 173.120 C 142.368 174.054,142.737 174.311,142.207 173.692 C 141.677 173.072,141.145 172.519,141.026 172.462 C 140.906 172.406,140.188 171.533,139.430 170.522 C 138.672 169.511,137.584 168.176,137.012 167.554 C 135.761 166.195,134.754 163.173,135.323 162.487 C 135.526 162.242,136.869 161.263,138.307 160.312 C 139.744 159.360,141.335 158.143,141.843 157.607 L 142.766 156.631 141.681 155.637 C 141.066 155.072,139.830 154.427,138.822 154.143 C 129.789 151.604,130.985 151.779,121.872 151.653 C 114.003 151.544,113.287 151.484,110.412 150.690 C 104.505 149.058,90.590 147.589,88.458 148.373 M324.041 171.149 C 323.221 171.944,323.204 172.003,323.849 171.835 C 324.377 171.696,324.490 171.757,324.294 172.073 C 324.120 172.356,324.158 172.419,324.411 172.263 C 324.618 172.135,324.690 171.870,324.569 171.674 C 324.426 171.443,324.543 171.393,324.903 171.531 C 325.208 171.648,325.376 171.613,325.277 171.452 C 325.178 171.292,325.259 171.107,325.457 171.041 C 325.698 170.960,325.672 170.814,325.378 170.600 C 325.059 170.366,324.695 170.516,324.041 171.149 M187.653 179.694 C 188.307 180.753,184.803 186.062,182.728 187.156 C 181.574 187.765,179.249 188.996,177.563 189.893 C 175.876 190.789,173.188 192.208,171.590 193.046 C 168.564 194.632,167.348 195.289,159.322 199.667 C 156.659 201.120,153.680 202.717,152.704 203.216 C 151.727 203.714,149.185 205.066,147.054 206.219 C 144.923 207.372,142.098 208.880,140.775 209.569 C 139.453 210.259,138.257 211.002,138.117 211.222 C 137.969 211.456,137.839 211.018,137.806 210.169 C 137.743 208.562,137.474 211.481,136.914 219.855 C 136.719 222.785,136.423 225.908,136.256 226.796 C 136.090 227.684,135.946 229.863,135.935 231.638 C 135.901 237.093,135.317 243.182,134.632 245.230 C 133.388 248.950,133.300 248.914,143.069 248.727 C 159.836 248.407,161.127 248.334,163.035 247.598 C 165.718 246.563,168.831 246.068,174.250 245.816 C 176.949 245.690,179.634 245.563,180.216 245.533 C 180.799 245.504,182.047 245.452,182.989 245.419 C 184.255 245.375,184.644 245.254,184.475 244.956 C 184.293 244.633,184.334 244.633,184.682 244.956 C 185.127 245.368,188.508 245.543,188.097 245.133 C 187.973 245.008,187.378 244.939,186.776 244.980 C 186.175 245.020,185.590 244.904,185.477 244.722 C 185.365 244.540,185.433 244.391,185.630 244.391 C 186.087 244.391,187.547 242.743,187.560 242.211 C 187.566 241.990,187.688 241.808,187.830 241.808 C 188.244 241.808,190.476 239.660,190.476 239.262 C 190.476 239.064,190.699 238.902,190.971 238.902 C 191.243 238.902,191.559 238.658,191.673 238.360 C 191.921 237.713,194.593 235.028,194.989 235.028 C 195.403 235.028,197.902 232.551,197.902 232.140 C 197.902 231.944,198.265 231.646,198.709 231.477 C 199.203 231.289,199.516 230.917,199.516 230.516 C 199.516 230.157,199.670 229.863,199.858 229.863 C 200.176 229.863,201.103 229.044,204.406 225.844 C 205.575 224.712,205.655 224.543,205.121 224.333 C 204.790 224.203,207.207 224.070,210.492 224.037 C 213.777 224.003,217.409 223.860,218.563 223.718 C 219.768 223.570,215.916 223.516,209.524 223.591 C 203.398 223.663,197.658 223.812,196.768 223.923 C 195.176 224.120,195.141 224.106,194.630 223.038 C 194.128 221.988,190.094 219.394,187.929 218.729 C 185.913 218.109,180.045 213.746,179.519 212.476 C 178.743 210.603,179.181 205.353,180.247 203.744 C 181.576 201.738,183.958 194.347,184.212 191.441 C 184.411 189.171,184.570 188.780,186.805 185.036 C 189.416 180.662,189.489 180.468,188.520 180.468 C 188.154 180.468,187.939 180.333,188.041 180.168 C 188.143 180.002,188.057 179.762,187.849 179.633 C 187.641 179.505,187.553 179.532,187.653 179.694 M269.095 183.558 C 267.963 184.780,267.789 196.933,268.903 196.933 C 270.664 196.933,270.908 195.878,270.794 188.727 C 270.694 182.435,270.548 181.990,269.095 183.558 M177.482 183.881 C 176.275 184.536,176.348 184.809,177.563 184.181 C 178.095 183.905,178.531 183.611,178.531 183.527 C 178.531 183.319,178.496 183.331,177.482 183.881 M220.270 185.472 C 220.272 186.360,220.335 186.685,220.409 186.194 C 220.483 185.703,220.481 184.977,220.405 184.580 C 220.328 184.183,220.267 184.584,220.270 185.472 M113.640 187.349 C 113.640 187.429,114.173 187.901,114.825 188.398 C 115.477 188.895,115.909 189.137,115.784 188.936 C 115.529 188.522,113.640 187.125,113.640 187.349 M264.599 188.270 C 263.732 189.508,263.842 199.193,264.722 199.193 C 266.091 199.193,266.368 198.034,266.272 192.703 C 266.176 187.396,265.838 186.501,264.599 188.270 M86.767 189.090 C 87.169 189.168,87.750 189.165,88.059 189.084 C 88.367 189.003,88.039 188.940,87.328 188.943 C 86.618 188.947,86.366 189.013,86.767 189.090 M237.611 189.992 C 238.213 190.613,238.779 191.122,238.868 191.122 C 238.956 191.122,238.536 190.613,237.934 189.992 C 237.331 189.370,236.766 188.862,236.677 188.862 C 236.588 188.862,237.009 189.370,237.611 189.992 M338.104 189.266 C 337.633 189.874,337.355 190.799,337.644 190.799 C 337.907 190.799,339.306 189.302,339.306 189.021 C 339.306 188.694,338.405 188.877,338.104 189.266 M336.444 192.252 C 336.219 192.873,335.664 193.824,335.209 194.364 C 334.755 194.904,334.459 195.422,334.552 195.515 C 334.800 195.763,336.301 193.698,336.879 192.315 C 337.153 191.659,337.259 191.122,337.115 191.122 C 336.971 191.122,336.669 191.630,336.444 192.252 M261.074 192.350 C 260.314 193.190,260.255 202.098,261.010 202.098 C 262.170 202.098,262.493 200.745,262.399 196.275 C 262.305 191.843,262.096 191.221,261.074 192.350 M226.473 194.350 C 227.167 195.061,227.807 195.642,227.895 195.642 C 227.984 195.642,227.489 195.061,226.796 194.350 C 226.102 193.640,225.462 193.059,225.373 193.059 C 225.285 193.059,225.779 193.640,226.473 194.350 M241.969 194.673 C 242.663 195.383,243.303 195.964,243.392 195.964 C 243.481 195.964,242.986 195.383,242.292 194.673 C 241.599 193.963,240.959 193.382,240.870 193.382 C 240.781 193.382,241.276 193.963,241.969 194.673 M230.670 198.870 C 231.544 199.758,232.332 200.484,232.421 200.484 C 232.510 200.484,231.867 199.758,230.993 198.870 C 230.118 197.982,229.330 197.256,229.241 197.256 C 229.153 197.256,229.795 197.982,230.670 198.870 M249.315 200.323 C 249.318 201.033,249.384 201.286,249.462 200.884 C 249.539 200.482,249.536 199.901,249.455 199.593 C 249.374 199.284,249.311 199.613,249.315 200.323 M135.150 202.746 C 135.528 203.189,136.067 203.987,136.348 204.520 C 136.629 205.052,136.865 205.372,136.872 205.230 C 136.898 204.711,135.962 203.210,135.223 202.584 L 134.463 201.942 135.150 202.746 M251.332 204.681 C 252.025 205.391,252.665 205.973,252.754 205.973 C 252.843 205.973,252.348 205.391,251.655 204.681 C 250.961 203.971,250.321 203.390,250.232 203.390 C 250.143 203.390,250.638 203.971,251.332 204.681 M236.320 204.843 C 236.922 205.464,237.487 205.973,237.576 205.973 C 237.665 205.973,237.245 205.464,236.642 204.843 C 236.040 204.221,235.475 203.713,235.386 203.713 C 235.297 203.713,235.717 204.221,236.320 204.843 M163.680 205.583 C 163.680 205.724,163.078 206.486,162.342 207.275 C 160.119 209.659,157.057 214.632,153.458 221.704 C 149.491 229.499,149.356 229.731,148.522 230.178 C 147.805 230.561,147.652 231.036,150.188 225.020 C 153.153 217.988,156.794 212.190,160.880 207.990 C 163.529 205.268,163.680 205.138,163.680 205.583 M240.517 209.362 C 241.119 209.984,241.684 210.492,241.773 210.492 C 241.862 210.492,241.442 209.984,240.839 209.362 C 240.237 208.741,239.672 208.232,239.583 208.232 C 239.494 208.232,239.914 208.741,240.517 209.362 M316.940 212.765 C 317.021 213.077,316.933 213.622,316.743 213.976 C 316.436 214.550,316.520 214.643,317.512 214.829 C 323.931 216.033,322.475 224.959,315.805 225.296 L 313.391 225.418 315.479 226.338 C 318.905 227.848,320.173 227.205,321.864 223.103 C 323.555 219.003,322.769 215.168,319.935 213.689 C 317.269 212.298,316.778 212.146,316.940 212.765 M253.413 215.577 L 252.300 216.788 253.511 215.675 C 254.638 214.640,254.870 214.366,254.623 214.366 C 254.570 214.366,254.025 214.911,253.413 215.577 M117.258 219.693 C 117.217 221.824,117.115 224.149,117.031 224.859 L 116.878 226.150 117.206 224.870 C 117.386 224.166,117.487 221.842,117.432 219.705 L 117.331 215.819 117.258 219.693 M265.370 218.481 C 266.166 218.551,266.927 218.779,267.060 218.989 C 267.221 219.243,267.304 219.181,267.307 218.805 C 267.312 218.331,267.040 218.250,265.617 218.297 L 263.923 218.353 265.370 218.481 M87.701 218.886 C 87.906 219.153,88.141 219.734,88.222 220.178 L 88.371 220.985 88.414 220.136 C 88.439 219.669,88.205 219.089,87.893 218.845 C 87.402 218.460,87.377 218.465,87.701 218.886 M260.371 220.056 C 259.408 220.876,259.520 220.837,261.621 219.617 C 262.071 219.357,262.141 219.221,261.824 219.225 C 261.558 219.229,260.904 219.603,260.371 220.056 M80.925 219.747 C 80.542 220.131,80.698 221.379,81.178 221.778 C 81.578 222.110,81.619 221.986,81.456 220.930 C 81.235 219.505,81.214 219.458,80.925 219.747 M239.064 220.500 C 238.657 220.675,238.597 220.778,238.902 220.778 C 239.169 220.778,239.677 220.653,240.032 220.500 C 240.439 220.326,240.499 220.223,240.194 220.223 C 239.927 220.223,239.419 220.348,239.064 220.500 M91.041 222.210 C 90.406 223.533,89.927 224.045,88.794 224.617 L 87.353 225.343 89.297 225.343 C 92.174 225.343,93.610 223.627,92.511 221.502 C 91.874 220.269,92.003 220.207,91.041 222.210 M239.467 222.773 C 238.624 223.797,237.934 224.730,237.934 224.845 C 237.934 224.960,238.674 224.164,239.579 223.077 C 240.484 221.990,241.174 221.057,241.112 221.005 C 241.051 220.953,240.311 221.748,239.467 222.773 M347.135 221.953 C 347.139 222.663,347.205 222.916,347.282 222.514 C 347.360 222.113,347.357 221.532,347.276 221.223 C 347.195 220.914,347.132 221.243,347.135 221.953 M82.080 223.083 C 82.634 224.030,84.455 225.346,85.197 225.336 C 85.482 225.332,85.123 225.060,84.399 224.732 C 83.676 224.403,82.752 223.716,82.346 223.205 C 81.754 222.460,81.702 222.436,82.080 223.083 M224.778 222.660 C 225.089 222.741,225.597 222.741,225.908 222.660 C 226.219 222.579,225.964 222.512,225.343 222.512 C 224.722 222.512,224.467 222.579,224.778 222.660 M221.953 223.083 L 220.662 223.314 221.792 223.337 C 222.413 223.350,223.212 223.236,223.567 223.083 C 224.328 222.756,223.779 222.756,221.953 223.083 M252.785 225.241 C 249.249 227.711,248.124 228.572,248.443 228.564 C 248.611 228.560,249.112 228.267,249.556 227.912 C 250.000 227.558,251.341 226.607,252.536 225.800 C 253.731 224.994,254.793 224.197,254.896 224.031 C 255.170 223.587,255.076 223.641,252.785 225.241 M310.819 225.249 C 311.221 225.326,311.802 225.323,312.110 225.242 C 312.419 225.161,312.090 225.098,311.380 225.102 C 310.670 225.105,310.417 225.171,310.819 225.249 M116.425 227.320 C 116.155 228.666,116.416 228.927,116.707 227.603 C 116.830 227.045,116.863 226.521,116.780 226.439 C 116.698 226.356,116.538 226.753,116.425 227.320 M262.133 228.954 C 261.403 230.053,261.013 230.780,261.266 230.570 C 261.760 230.160,263.826 226.957,263.597 226.957 C 263.521 226.957,262.862 227.856,262.133 228.954 M246.893 229.079 C 245.686 229.734,245.759 230.006,246.973 229.379 C 247.506 229.103,247.942 228.809,247.942 228.725 C 247.942 228.517,247.907 228.529,246.893 229.079 M345.504 229.766 C 345.027 231.323,345.258 231.554,345.763 230.024 C 345.976 229.379,346.087 228.788,346.010 228.711 C 345.934 228.635,345.706 229.109,345.504 229.766 M238.287 233.945 C 237.150 234.541,236.392 235.028,236.603 235.028 C 236.979 235.028,239.560 233.762,240.517 233.109 C 241.489 232.445,240.303 232.890,238.287 233.945 M251.251 238.479 C 251.562 238.560,252.070 238.560,252.381 238.479 C 252.692 238.398,252.437 238.332,251.816 238.332 C 251.195 238.332,250.940 238.398,251.251 238.479 M248.426 238.917 C 247.976 239.121,248.172 239.150,249.072 239.013 C 249.782 238.905,250.424 238.763,250.498 238.698 C 250.775 238.454,249.046 238.637,248.426 238.917 M237.386 239.466 C 239.305 239.523,242.356 239.523,244.166 239.466 C 245.976 239.408,244.407 239.362,240.678 239.362 C 236.949 239.362,235.468 239.409,237.386 239.466 M230.756 239.782 C 231.337 239.854,232.208 239.852,232.693 239.779 C 233.179 239.705,232.704 239.646,231.638 239.648 C 230.573 239.650,230.176 239.710,230.756 239.782 M309.820 249.448 C 309.433 249.836,309.592 250.173,310.331 250.531 C 311.009 250.860,311.018 250.851,310.460 250.402 C 310.131 250.138,309.958 249.767,310.076 249.578 C 310.312 249.195,310.154 249.115,309.820 249.448 M315.335 251.081 C 315.912 251.153,316.856 251.153,317.433 251.081 C 318.010 251.009,317.538 250.951,316.384 250.951 C 315.230 250.951,314.758 251.009,315.335 251.081 " stroke="none" fill="#9d77bb" fill-rule="evenodd"></path><path id="path3" d="M180.791 31.374 C 180.169 31.526,179.328 31.724,178.922 31.814 C 177.607 32.106,171.947 35.047,170.892 35.986 C 170.686 36.169,169.425 37.191,168.089 38.257 C 166.753 39.322,165.650 40.303,165.638 40.436 C 165.610 40.763,164.226 42.131,163.923 42.131 C 163.789 42.131,163.663 42.276,163.641 42.454 C 163.607 42.733,163.106 43.430,161.731 45.111 C 161.135 45.840,158.477 51.009,158.699 51.009 C 158.819 51.009,158.736 51.227,158.515 51.493 C 158.294 51.759,158.221 51.977,158.354 51.977 C 158.486 51.977,158.413 52.195,158.192 52.462 C 157.971 52.728,157.886 52.946,158.002 52.946 C 158.119 52.946,158.079 53.200,157.913 53.511 C 157.288 54.684,156.885 59.890,157.230 62.351 C 158.032 68.084,159.096 68.632,162.631 65.132 C 164.499 63.283,165.392 61.970,164.084 62.995 C 163.570 63.398,163.560 63.386,163.969 62.865 C 164.216 62.550,164.493 62.368,164.585 62.459 C 164.800 62.675,165.617 61.998,165.617 61.604 C 165.617 61.438,165.436 61.406,165.214 61.534 C 164.992 61.662,165.163 61.380,165.593 60.908 C 166.023 60.435,166.445 60.048,166.531 60.048 C 166.616 60.048,166.423 60.339,166.102 60.694 C 165.780 61.049,165.666 61.340,165.848 61.340 C 166.204 61.340,170.811 56.454,172.298 54.498 C 173.165 53.358,175.330 51.922,177.399 51.114 C 177.933 50.906,178.152 50.725,177.885 50.713 C 177.619 50.700,176.997 50.901,176.503 51.159 C 176.009 51.416,175.691 51.487,175.797 51.316 C 177.091 49.222,185.570 50.085,184.748 52.226 C 184.607 52.593,184.679 52.657,185.014 52.463 C 185.266 52.316,185.381 52.299,185.269 52.425 C 185.157 52.550,185.412 53.741,185.834 55.072 C 186.860 58.303,186.855 61.528,185.817 65.278 C 185.390 66.823,185.113 68.421,185.203 68.830 C 185.320 69.360,185.279 69.448,185.059 69.139 C 184.825 68.810,184.714 68.904,184.594 69.533 C 184.507 69.988,184.544 70.293,184.677 70.211 C 184.809 70.129,184.771 70.640,184.592 71.346 C 184.413 72.052,184.159 72.564,184.028 72.483 C 183.898 72.403,183.624 72.702,183.421 73.149 C 182.971 74.135,182.944 74.596,183.374 73.931 C 183.755 73.340,183.755 73.850,183.374 74.738 C 183.180 75.187,183.082 75.236,183.051 74.899 C 182.986 74.205,182.448 75.527,182.460 76.352 C 182.468 76.871,182.520 76.839,182.728 76.190 C 182.941 75.526,182.991 75.497,183.014 76.029 C 183.029 76.384,182.900 76.893,182.728 77.159 C 182.556 77.425,182.411 77.498,182.405 77.320 C 182.393 76.908,181.769 77.857,181.769 78.289 C 181.769 78.467,181.910 78.394,182.082 78.128 C 182.512 77.462,182.485 77.923,182.035 78.909 C 181.832 79.356,181.543 79.646,181.393 79.553 C 181.244 79.461,181.195 79.579,181.286 79.815 C 181.377 80.051,181.219 80.531,180.936 80.881 C 180.652 81.231,180.516 81.299,180.634 81.033 C 180.751 80.767,180.546 80.912,180.179 81.356 C 179.812 81.800,179.576 82.343,179.655 82.563 C 179.734 82.783,179.641 82.928,179.448 82.886 C 179.254 82.843,179.023 83.011,178.933 83.257 C 178.824 83.558,178.907 83.621,179.185 83.449 C 179.459 83.280,179.520 83.322,179.366 83.571 C 179.237 83.779,179.013 83.876,178.868 83.786 C 178.722 83.696,178.190 84.165,177.685 84.830 C 177.180 85.494,176.303 86.473,175.735 87.006 L 174.702 87.974 176.938 90.018 L 179.174 92.062 179.942 91.148 C 180.364 90.645,181.209 89.580,181.821 88.781 C 182.432 87.982,184.763 84.973,187.000 82.094 C 193.063 74.293,196.192 68.923,197.877 63.425 C 198.256 62.189,198.643 60.926,198.738 60.617 C 198.890 60.126,198.736 60.077,197.519 60.233 C 194.116 60.667,191.671 57.223,193.467 54.527 C 194.644 52.759,196.397 52.067,198.125 52.688 C 199.742 53.270,199.743 53.270,199.188 50.327 C 197.873 43.349,190.700 34.753,184.019 32.147 C 183.220 31.836,182.421 31.472,182.244 31.339 C 182.066 31.206,181.412 31.222,180.791 31.374 M75.064 42.679 C 72.088 45.299,72.332 41.603,72.323 84.353 C 72.318 115.321,72.394 122.240,72.753 123.094 C 73.691 125.324,77.703 128.145,79.961 128.161 L 80.986 128.168 80.845 126.473 C 80.767 125.541,80.486 119.839,80.220 113.801 C 79.955 107.764,79.660 101.227,79.564 99.274 C 79.469 97.320,79.104 89.621,78.754 82.163 C 77.374 52.803,76.808 41.511,76.713 41.416 C 76.658 41.361,75.916 41.929,75.064 42.679 M196.287 83.574 C 196.287 83.753,196.464 84.010,196.679 84.143 C 196.940 84.304,196.751 84.521,196.114 84.793 C 195.323 85.130,195.276 85.203,195.844 85.215 C 196.897 85.238,197.447 84.406,196.804 83.763 C 196.520 83.479,196.287 83.394,196.287 83.574 M195.937 86.559 C 196.713 87.906,196.833 88.554,196.136 87.632 C 195.434 86.704,195.520 87.164,197.106 92.817 C 197.902 95.658,198.473 97.401,198.374 96.691 C 198.275 95.981,198.069 94.092,197.917 92.494 C 197.644 89.631,196.889 87.321,195.807 86.037 C 195.462 85.628,195.509 85.818,195.937 86.559 M242.534 90.512 C 242.135 90.710,241.808 90.979,241.808 91.110 C 241.808 91.241,241.279 91.824,240.633 92.405 C 239.986 92.987,239.270 93.644,239.042 93.866 C 238.813 94.088,238.574 94.270,238.512 94.270 C 238.449 94.270,237.365 95.250,236.103 96.449 C 234.841 97.647,233.320 99.045,232.723 99.556 C 232.127 100.066,230.505 101.519,229.119 102.784 C 227.734 104.049,225.637 105.956,224.460 107.022 C 223.283 108.087,221.693 109.560,220.926 110.295 C 220.160 111.030,219.284 111.611,218.980 111.586 C 218.667 111.561,218.370 111.817,218.296 112.177 C 218.183 112.729,218.235 112.755,218.688 112.380 C 219.336 111.842,219.637 112.044,222.195 114.735 C 223.410 116.012,224.052 116.496,224.052 116.132 C 224.052 115.827,224.184 115.577,224.345 115.577 C 224.655 115.577,227.227 113.267,230.817 109.766 C 232.001 108.612,233.465 107.304,234.071 106.860 C 234.677 106.416,236.182 105.073,237.416 103.874 C 238.650 102.676,239.732 101.695,239.820 101.695 C 239.908 101.695,240.718 100.930,241.621 99.994 C 242.523 99.059,243.769 97.897,244.391 97.413 C 248.137 94.495,248.087 94.753,245.464 91.894 C 243.694 89.965,243.665 89.952,242.534 90.512 M248.839 99.031 C 248.088 99.697,247.169 100.533,246.797 100.888 C 246.076 101.575,241.789 105.409,239.937 107.022 C 239.325 107.554,238.223 108.571,237.487 109.282 C 236.752 109.992,235.644 110.991,235.024 111.503 C 233.074 113.113,228.788 116.974,227.361 118.408 C 226.606 119.165,225.989 119.638,225.989 119.457 C 225.989 119.276,225.842 119.128,225.664 119.128 C 225.339 119.128,228.152 123.876,229.202 125.101 C 230.346 126.436,231.477 128.804,231.464 129.840 L 231.450 130.912 230.380 129.701 C 229.051 128.197,229.060 128.196,228.422 129.866 C 227.901 131.231,227.904 131.254,228.874 133.014 L 229.851 134.786 229.931 142.696 L 230.011 150.605 230.105 143.584 C 230.184 137.640,230.272 136.562,230.676 136.562 C 231.056 136.562,231.154 137.060,231.154 138.983 C 231.154 142.196,230.051 142.844,240.179 133.686 C 243.634 130.562,249.514 125.246,253.246 121.872 C 262.524 113.486,262.338 113.659,262.068 113.649 C 261.936 113.644,260.041 115.274,257.857 117.272 C 255.674 119.270,251.060 123.457,247.605 126.578 C 244.150 129.698,239.808 133.621,237.955 135.294 C 236.102 136.968,233.867 138.985,232.989 139.777 L 231.393 141.217 231.594 138.970 C 231.705 137.734,231.888 134.874,232.002 132.614 C 232.115 130.354,232.318 128.573,232.452 128.656 C 232.586 128.739,232.875 128.590,233.094 128.326 C 233.314 128.061,233.368 127.845,233.216 127.845 C 233.063 127.845,233.677 127.348,234.579 126.740 C 235.482 126.132,236.606 125.177,237.077 124.617 C 237.548 124.057,237.934 123.692,237.934 123.806 C 237.934 123.920,238.876 123.096,240.027 121.974 C 241.179 120.853,242.877 119.282,243.802 118.483 C 244.727 117.684,246.110 116.397,246.874 115.624 C 247.639 114.851,248.265 114.317,248.265 114.439 C 248.265 114.560,248.930 113.994,249.743 113.181 C 250.556 112.368,251.270 111.703,251.329 111.703 C 251.388 111.703,252.221 110.940,253.179 110.008 C 255.823 107.435,257.253 106.273,257.498 106.497 C 257.620 106.608,257.448 106.263,257.116 105.730 C 256.784 105.198,256.429 104.689,256.328 104.600 C 256.227 104.512,255.317 103.349,254.304 102.018 C 250.805 97.415,250.716 97.366,248.839 99.031 M340.404 107.337 C 335.280 107.780,335.263 107.786,335.004 109.078 C 334.610 111.051,332.984 111.504,309.436 116.198 C 297.566 118.563,295.400 119.140,295.400 119.937 C 295.400 120.118,294.891 121.022,294.270 121.945 C 293.648 122.868,293.140 123.701,293.140 123.797 C 293.140 124.692,328.317 115.863,330.485 114.423 C 333.841 112.195,341.682 110.089,346.617 110.089 C 348.535 110.089,349.960 109.147,349.960 107.878 C 349.960 106.726,348.452 106.640,340.404 107.337 M212.783 112.711 C 213.920 113.443,214.967 114.242,215.109 114.487 C 215.511 115.179,215.863 115.022,216.560 113.841 C 217.145 112.850,217.152 112.763,216.642 112.897 C 216.333 112.978,214.965 112.669,213.602 112.212 C 210.375 111.129,210.349 111.145,212.783 112.711 M186.042 112.580 C 186.532 112.655,187.259 112.653,187.656 112.576 C 188.053 112.499,187.651 112.439,186.764 112.441 C 185.876 112.443,185.551 112.506,186.042 112.580 M113.640 120.339 C 113.640 120.472,115.056 120.540,116.787 120.490 C 121.620 120.351,121.975 120.199,117.595 120.145 C 115.420 120.119,113.640 120.206,113.640 120.339 M131.915 128.033 C 131.570 128.932,131.704 129.691,132.284 130.131 C 132.765 130.494,132.789 130.490,132.446 130.105 C 131.934 129.532,131.926 128.413,132.429 127.910 C 132.689 127.650,132.700 127.522,132.464 127.522 C 132.270 127.522,132.023 127.752,131.915 128.033 M363.842 129.459 C 363.842 130.036,363.627 130.105,361.840 130.105 C 359.777 130.105,355.231 131.039,352.373 132.050 C 348.990 133.247,344.003 134.046,340.640 133.929 L 337.442 133.818 338.293 134.822 C 338.762 135.375,339.828 136.770,340.662 137.922 C 341.497 139.075,343.023 140.766,344.052 141.681 C 348.733 145.842,350.086 146.893,350.757 146.893 C 353.326 146.893,359.777 143.312,359.898 141.819 C 360.294 136.953,360.785 136.177,363.320 136.415 C 366.592 136.723,367.245 136.101,367.534 132.404 C 367.812 128.850,367.793 128.814,365.598 128.814 C 364.057 128.814,363.842 128.893,363.842 129.459 M143.445 134.232 C 143.769 134.593,144.495 135.074,145.060 135.300 C 145.624 135.527,146.591 136.049,147.210 136.460 C 147.828 136.871,148.474 137.207,148.645 137.207 C 148.816 137.207,148.269 136.772,147.429 136.239 C 146.589 135.706,145.782 135.270,145.635 135.270 C 145.489 135.270,144.803 134.889,144.113 134.423 C 143.150 133.773,142.994 133.728,143.445 134.232 M159.161 142.486 C 159.161 142.569,160.722 143.543,162.631 144.651 C 164.540 145.759,166.828 147.166,167.716 147.777 C 168.830 148.545,169.030 148.625,168.362 148.035 C 167.829 147.565,165.650 146.151,163.519 144.893 C 158.788 142.099,159.161 142.304,159.161 142.486 M157.780 152.839 C 156.070 153.299,154.002 154.672,150.605 157.602 C 146.049 161.531,143.555 162.505,141.222 161.264 C 139.013 160.090,136.968 160.505,135.349 162.456 C 134.752 163.175,135.725 166.156,137.012 167.554 C 137.584 168.176,138.672 169.511,139.430 170.522 C 140.188 171.533,140.906 172.405,141.026 172.459 C 141.145 172.514,142.035 173.503,143.003 174.657 C 143.971 175.811,145.642 177.700,146.716 178.854 C 147.790 180.008,149.031 181.571,149.475 182.327 C 154.009 190.047,156.069 192.080,159.368 192.089 C 161.773 192.095,176.489 185.050,180.705 181.875 C 182.996 180.149,188.217 178.849,187.974 180.065 C 187.930 180.287,188.184 180.468,188.539 180.468 C 189.487 180.468,189.407 180.676,186.804 185.036 C 184.529 188.846,184.415 189.132,184.251 191.458 C 184.135 193.110,183.646 195.167,182.729 197.859 C 181.177 202.420,181.204 202.597,183.195 200.966 C 184.962 199.518,184.989 199.407,183.535 199.577 C 182.914 199.650,182.405 199.593,182.405 199.451 C 182.405 199.207,182.731 199.150,184.679 199.050 C 186.620 198.951,189.146 196.308,189.172 194.350 C 189.347 180.649,205.448 173.809,215.012 183.374 C 226.823 195.185,213.114 214.544,197.889 207.554 L 195.777 206.585 194.045 207.388 C 192.637 208.040,192.237 208.409,191.913 209.352 C 190.672 212.963,186.982 215.373,183.441 214.888 C 182.556 214.767,182.121 214.814,182.247 215.018 C 182.610 215.604,186.187 217.885,188.005 218.689 C 188.992 219.125,190.641 219.974,191.671 220.574 C 192.701 221.175,194.633 222.072,195.964 222.568 L 198.386 223.471 208.653 223.420 C 219.249 223.367,225.049 222.789,225.710 221.720 C 226.181 220.959,225.125 220.848,222.317 221.364 C 218.919 221.988,219.279 222.390,219.012 217.667 C 218.890 215.503,218.630 213.459,218.435 213.124 C 216.477 209.778,216.089 207.625,217.094 205.682 C 217.631 204.643,219.439 202.975,220.782 202.281 C 222.176 201.560,223.245 198.021,223.245 194.123 L 223.245 191.152 224.371 192.186 C 224.990 192.755,224.449 192.114,223.169 190.761 C 219.450 186.834,219.186 184.556,222.071 181.276 L 222.922 180.309 222.003 181.115 C 221.498 181.558,220.874 182.325,220.617 182.820 L 220.149 183.719 218.912 182.153 C 215.054 177.273,209.371 174.334,203.789 174.334 L 201.537 174.334 180.429 163.696 C 168.820 157.845,159.358 152.905,159.403 152.719 C 159.447 152.533,159.447 152.391,159.403 152.403 C 159.358 152.415,158.628 152.611,157.780 152.839 M181.180 153.977 C 183.466 155.247,186.021 155.604,192.413 155.544 L 198.386 155.488 191.606 155.290 C 185.894 155.124,184.547 154.989,183.051 154.432 C 180.053 153.317,179.946 153.291,181.180 153.977 M221.872 155.186 C 222.183 155.267,222.692 155.267,223.002 155.186 C 223.313 155.105,223.059 155.039,222.437 155.039 C 221.816 155.039,221.562 155.105,221.872 155.186 M82.647 164.629 C 84.383 166.234,88.781 169.420,88.781 169.073 C 88.781 169.000,87.873 168.309,86.764 167.539 C 85.654 166.769,83.947 165.498,82.970 164.713 L 81.195 163.287 82.647 164.629 M91.041 170.884 C 91.041 170.939,91.513 171.412,92.090 171.933 L 93.140 172.881 92.191 171.832 C 91.308 170.854,91.041 170.634,91.041 170.884 M321.711 172.603 C 321.356 172.883,320.557 173.335,319.935 173.608 C 319.314 173.880,318.976 174.164,319.185 174.238 C 319.721 174.427,322.077 173.170,322.307 172.572 C 322.540 171.966,322.519 171.967,321.711 172.603 M93.740 173.292 C 93.995 173.705,95.884 175.103,95.884 174.879 C 95.884 174.799,95.350 174.327,94.699 173.830 C 94.047 173.332,93.615 173.091,93.740 173.292 M316.384 174.892 C 315.653 175.170,314.311 176.271,314.703 176.271 C 314.892 176.271,315.241 176.077,315.479 175.839 C 315.717 175.601,316.345 175.249,316.874 175.057 C 317.404 174.865,317.619 174.708,317.353 174.708 C 317.086 174.708,316.651 174.791,316.384 174.892 M96.207 175.093 C 96.207 175.176,97.171 176.001,98.349 176.927 C 99.527 177.853,100.392 178.451,100.272 178.256 C 100.011 177.835,96.207 174.874,96.207 175.093 M310.770 178.198 C 309.901 178.707,308.884 179.440,308.510 179.826 C 307.773 180.585,309.761 179.438,311.714 177.976 C 313.014 177.004,312.667 177.086,310.770 178.198 M223.552 179.207 C 223.268 179.756,223.093 180.263,223.163 180.333 C 223.233 180.403,223.532 179.953,223.827 179.334 C 224.491 177.942,224.261 177.835,223.552 179.207 M100.726 178.615 C 100.726 178.691,101.489 179.389,102.421 180.167 C 103.354 180.944,103.912 181.325,103.663 181.012 C 103.162 180.384,100.726 178.396,100.726 178.615 M305.730 181.831 C 303.152 183.346,302.179 184.049,302.179 184.397 C 302.179 184.624,302.396 184.574,302.744 184.268 C 303.055 183.995,303.890 183.480,304.600 183.123 C 305.311 182.766,306.169 182.168,306.507 181.794 C 307.247 180.975,307.182 180.978,305.730 181.831 M78.935 183.364 C 35.314 192.826,41.778 257.037,86.360 257.131 C 120.163 257.202,136.643 217.097,112.593 193.294 C 108.954 189.692,109.194 189.703,107.497 193.076 C 105.878 196.298,105.822 195.960,108.435 198.711 C 112.443 202.930,115.018 207.466,116.188 212.365 C 116.525 213.774,116.977 215.257,117.192 215.659 C 118.276 217.684,117.069 228.084,115.384 231.241 C 113.516 234.744,112.888 235.851,112.687 235.997 C 112.565 236.086,111.833 237.030,111.060 238.095 C 107.984 242.335,104.411 245.374,100.323 247.224 C 98.287 248.146,97.821 248.492,97.821 249.079 C 97.821 250.058,97.328 250.401,94.577 251.337 C 89.185 253.171,76.984 252.140,77.570 249.900 C 77.693 249.427,77.219 249.123,75.035 248.274 C 66.283 244.869,59.007 236.737,56.926 228.033 C 56.393 225.805,55.598 224.542,54.509 224.197 C 53.566 223.898,53.635 215.832,54.605 212.996 C 55.808 209.478,57.789 206.112,57.789 207.587 C 57.789 208.435,58.395 207.667,59.692 205.175 C 62.162 200.430,68.745 194.253,73.285 192.421 C 73.906 192.171,74.487 191.870,74.576 191.753 C 74.848 191.396,78.820 190.206,80.872 189.868 C 86.706 188.905,87.379 188.851,89.763 189.160 C 91.102 189.333,92.901 189.632,93.761 189.825 C 94.620 190.018,95.360 190.134,95.405 190.084 C 95.724 189.723,98.158 184.572,98.057 184.471 C 96.585 182.999,83.981 182.270,78.935 183.364 M106.054 183.053 C 106.271 183.402,108.152 184.450,108.152 184.221 C 108.152 184.145,107.635 183.778,107.002 183.405 C 106.370 183.032,105.944 182.873,106.054 183.053 M269.016 183.132 C 268.466 183.843,268.213 184.528,268.741 183.877 C 269.021 183.532,269.431 183.135,269.653 182.994 C 269.917 182.827,269.930 182.736,269.692 182.733 C 269.492 182.730,269.188 182.910,269.016 183.132 M270.797 188.791 C 270.904 195.564,270.724 196.443,269.129 196.905 C 268.574 197.066,268.362 197.211,268.658 197.227 C 270.822 197.344,271.186 196.167,271.186 189.058 C 271.186 185.775,271.077 183.021,270.944 182.939 C 270.811 182.856,270.745 185.490,270.797 188.791 M108.475 184.491 C 108.475 184.579,109.056 184.948,109.766 185.311 C 110.476 185.673,111.057 185.897,111.057 185.808 C 111.057 185.719,110.476 185.350,109.766 184.988 C 109.056 184.626,108.475 184.402,108.475 184.491 M250.424 184.890 C 250.813 184.966,251.195 185.273,251.274 185.573 C 251.376 185.959,251.429 185.906,251.456 185.391 C 251.486 184.795,251.334 184.673,250.605 184.709 C 249.874 184.745,249.842 184.777,250.424 184.890 M268.093 190.638 C 268.093 194.011,268.141 195.348,268.199 193.607 C 268.257 191.867,268.257 189.106,268.198 187.473 C 268.140 185.840,268.092 187.264,268.093 190.638 M300.565 185.340 C 300.029 185.778,299.975 185.888,300.404 185.666 C 301.457 185.122,302.040 184.675,301.695 184.677 C 301.517 184.678,301.009 184.976,300.565 185.340 M297.659 186.954 C 297.123 187.392,297.069 187.502,297.498 187.280 C 298.551 186.736,299.135 186.289,298.789 186.291 C 298.612 186.293,298.103 186.591,297.659 186.954 M250.922 187.571 C 250.922 188.192,250.989 188.446,251.070 188.136 C 251.151 187.825,251.151 187.316,251.070 187.006 C 250.989 186.695,250.922 186.949,250.922 187.571 M263.891 194.027 C 263.891 196.780,263.941 197.906,264.001 196.529 C 264.062 195.153,264.062 192.902,264.001 191.525 C 263.941 190.149,263.891 191.275,263.891 194.027 M338.095 190.361 C 337.695 190.793,337.145 191.678,336.874 192.327 C 336.602 192.977,336.013 193.990,335.564 194.579 L 334.747 195.650 335.816 196.533 C 340.905 200.738,344.156 205.826,345.788 212.135 C 346.174 213.629,346.689 215.137,346.933 215.487 C 348.316 217.473,346.560 230.196,344.603 232.370 C 344.326 232.678,343.347 234.223,342.429 235.804 C 339.542 240.772,334.103 245.564,328.652 247.940 C 327.676 248.366,326.717 248.901,326.522 249.130 C 325.086 250.813,312.216 251.701,309.869 250.279 C 309.280 249.921,307.932 249.382,306.874 249.080 C 304.426 248.381,299.904 246.082,297.357 244.242 C 292.694 240.873,286.037 229.971,286.037 225.704 C 286.037 225.456,289.631 225.323,298.063 225.259 L 310.089 225.167 296.289 225.111 C 282.008 225.053,280.302 225.200,279.464 226.563 C 278.771 227.689,282.188 236.253,285.060 240.586 C 301.632 265.589,339.423 261.836,350.940 234.044 C 356.928 219.592,352.531 201.305,340.774 191.768 C 339.789 190.969,339.051 190.133,339.134 189.911 C 339.367 189.290,338.899 189.492,338.095 190.361 M293.086 190.906 C 292.698 191.498,291.970 192.218,291.469 192.505 C 290.598 193.005,290.169 194.350,290.880 194.350 C 291.057 194.350,291.185 194.241,291.164 194.108 C 291.060 193.446,291.260 193.084,291.829 192.903 C 292.174 192.794,292.818 192.058,293.260 191.267 C 294.203 189.580,294.098 189.363,293.086 190.906 M240.355 192.736 C 241.230 193.624,242.018 194.350,242.106 194.350 C 242.195 194.350,241.552 193.624,240.678 192.736 C 239.804 191.848,239.015 191.122,238.927 191.122 C 238.838 191.122,239.481 191.848,240.355 192.736 M260.986 192.171 L 260.371 192.897 261.077 192.301 C 261.475 191.965,261.955 191.810,262.176 191.947 C 262.427 192.102,262.486 192.055,262.339 191.817 C 262.002 191.271,261.676 191.357,260.986 192.171 M260.281 197.508 C 260.221 201.402,260.287 202.148,260.706 202.309 C 261.229 202.510,262.470 201.595,262.470 201.008 C 262.470 200.819,262.244 200.986,261.967 201.381 C 260.816 203.025,260.556 202.359,260.451 197.498 L 260.352 192.897 260.281 197.508 M227.280 195.480 C 228.245 196.457,229.106 197.256,229.195 197.256 C 229.284 197.256,228.567 196.457,227.603 195.480 C 226.638 194.504,225.777 193.705,225.688 193.705 C 225.599 193.705,226.316 194.504,227.280 195.480 M290.724 196.126 C 290.597 196.481,289.946 198.224,289.276 200.000 C 287.771 203.989,287.483 205.114,288.013 204.937 C 288.227 204.866,288.443 204.598,288.492 204.341 C 288.928 202.080,289.336 200.807,289.623 200.807 C 289.782 200.807,289.911 200.546,289.911 200.226 C 289.911 199.906,290.086 199.471,290.299 199.257 C 290.512 199.044,290.586 198.870,290.463 198.870 C 290.340 198.870,290.470 198.294,290.752 197.590 C 291.033 196.886,291.194 196.123,291.109 195.895 C 291.008 195.623,290.875 195.703,290.724 196.126 M244.391 197.094 C 244.993 197.716,245.558 198.224,245.647 198.224 C 245.736 198.224,245.316 197.716,244.713 197.094 C 244.111 196.473,243.546 195.964,243.457 195.964 C 243.368 195.964,243.788 196.473,244.391 197.094 M249.638 198.063 C 249.641 198.773,249.707 199.026,249.784 198.624 C 249.862 198.223,249.859 197.641,249.778 197.333 C 249.697 197.024,249.634 197.353,249.638 198.063 M232.123 200.646 C 233.803 202.333,235.250 203.713,235.338 203.713 C 235.427 203.713,234.125 202.333,232.446 200.646 C 230.766 198.959,229.319 197.579,229.230 197.579 C 229.141 197.579,230.443 198.959,232.123 200.646 M265.521 198.839 C 265.352 198.999,264.923 199.200,264.568 199.286 C 263.956 199.433,263.958 199.443,264.609 199.478 C 264.987 199.499,265.477 199.298,265.698 199.031 C 266.136 198.503,266.014 198.370,265.521 198.839 M249.594 201.968 C 249.573 202.340,249.883 202.921,250.282 203.259 C 251.003 203.869,251.005 203.869,250.477 203.228 C 250.185 202.873,249.875 202.292,249.788 201.937 C 249.637 201.316,249.630 201.317,249.594 201.968 M136.017 204.648 C 136.406 205.518,136.768 206.110,136.823 205.964 C 136.926 205.687,135.681 203.067,135.446 203.067 C 135.372 203.067,135.629 203.779,136.017 204.648 M179.361 206.406 C 178.799 209.702,179.270 212.357,180.649 213.675 C 181.326 214.322,181.686 214.592,181.449 214.275 C 181.051 213.744,181.085 213.726,181.894 214.033 C 185.030 215.226,189.377 213.502,190.988 210.428 C 191.950 208.591,191.629 208.521,188.405 209.868 C 182.827 212.198,180.306 211.245,179.816 206.618 L 179.627 204.843 179.361 206.406 M238.095 206.941 C 238.789 207.651,239.429 208.232,239.518 208.232 C 239.606 208.232,239.112 207.651,238.418 206.941 C 237.725 206.231,237.084 205.650,236.996 205.650 C 236.907 205.650,237.402 206.231,238.095 206.941 M96.930 207.345 C 96.469 207.917,94.553 211.784,94.730 211.784 C 94.810 211.784,95.447 210.694,96.145 209.362 C 97.402 206.963,97.557 206.564,96.930 207.345 M137.325 210.977 C 137.326 212.752,137.380 213.437,137.446 212.499 C 137.511 211.561,137.511 210.108,137.444 209.271 C 137.378 208.433,137.324 209.201,137.325 210.977 M309.040 210.364 C 308.107 210.978,307.345 211.623,307.345 211.799 C 307.345 211.974,308.178 211.545,309.197 210.844 C 310.693 209.816,311.142 209.644,311.537 209.951 C 311.964 210.283,311.969 210.259,311.583 209.766 C 311.019 209.047,311.050 209.040,309.040 210.364 M287.651 211.380 C 287.652 214.884,289.478 221.469,290.449 221.469 C 291.178 221.469,298.612 217.626,297.930 217.602 C 297.506 217.587,291.525 220.594,291.525 220.822 C 291.525 220.951,291.174 220.989,290.745 220.907 C 289.682 220.704,288.498 215.946,288.333 211.219 C 288.282 209.751,287.651 209.900,287.651 211.380 M255.732 211.216 C 257.061 213.699,250.491 218.947,245.843 219.113 C 244.778 219.151,243.832 219.189,243.741 219.196 C 243.418 219.222,240.918 222.624,239.921 224.394 C 237.979 227.842,237.005 232.282,237.886 233.671 C 238.666 234.900,247.485 228.706,260.729 217.627 C 261.280 217.165,262.043 216.535,262.424 216.226 C 263.373 215.455,263.313 215.212,261.760 213.527 C 259.712 211.306,254.764 209.408,255.732 211.216 M304.828 213.259 C 304.109 213.762,304.128 214.390,304.862 214.341 C 305.137 214.323,305.131 214.269,304.841 214.152 C 304.562 214.039,304.662 213.800,305.164 213.381 C 306.050 212.642,305.826 212.560,304.828 213.259 M86.647 213.892 C 86.352 214.342,86.170 214.768,86.242 214.840 C 86.313 214.912,86.617 214.544,86.916 214.023 C 87.582 212.862,87.384 212.766,86.647 213.892 M316.221 214.369 C 315.981 214.758,316.838 215.142,317.423 214.907 C 317.651 214.815,317.502 214.729,317.092 214.715 C 316.681 214.701,316.436 214.544,316.546 214.366 C 316.655 214.189,316.672 214.044,316.584 214.044 C 316.495 214.044,316.332 214.190,316.221 214.369 M304.116 214.689 L 302.341 214.907 304.520 214.959 C 305.792 214.990,306.699 214.878,306.699 214.689 C 306.699 214.512,306.517 214.390,306.295 214.419 C 306.073 214.448,305.093 214.570,304.116 214.689 M318.869 215.644 C 320.329 216.534,321.035 217.774,321.260 219.840 L 321.455 221.630 321.502 220.081 C 321.569 217.897,319.696 215.009,318.216 215.013 C 318.007 215.014,318.301 215.298,318.869 215.644 M263.828 218.184 C 263.587 218.342,264.182 218.393,265.235 218.306 C 266.560 218.196,267.145 218.277,267.372 218.601 C 267.630 218.969,267.661 218.963,267.554 218.563 C 267.406 218.015,264.534 217.723,263.828 218.184 M315.093 218.886 C 314.738 219.241,314.459 219.786,314.473 220.097 C 314.489 220.461,314.611 220.353,314.816 219.794 C 314.991 219.316,315.523 218.784,316.001 218.609 C 316.559 218.405,316.667 218.282,316.303 218.266 C 315.993 218.252,315.448 218.531,315.093 218.886 M136.562 220.904 C 136.562 222.014,136.344 224.060,136.077 225.452 C 135.811 226.844,135.610 228.660,135.630 229.488 C 135.659 230.695,135.752 230.418,136.099 228.087 C 136.642 224.449,137.047 218.886,136.770 218.886 C 136.656 218.886,136.562 219.794,136.562 220.904 M81.437 220.339 C 81.441 221.049,81.507 221.302,81.584 220.900 C 81.661 220.499,81.659 219.917,81.578 219.609 C 81.497 219.300,81.434 219.629,81.437 220.339 M91.270 221.103 C 90.966 222.554,88.828 224.682,87.609 224.746 C 84.975 224.885,83.153 224.147,82.331 222.610 C 82.090 222.161,81.825 221.861,81.741 221.945 C 80.803 222.883,85.327 225.579,87.234 225.219 C 89.515 224.788,91.955 222.189,91.611 220.557 C 91.547 220.254,91.397 220.495,91.270 221.103 M320.904 222.036 C 320.904 222.230,320.510 222.871,320.028 223.462 C 319.307 224.345,319.283 224.422,319.896 223.894 C 320.766 223.144,321.360 222.140,321.092 221.872 C 320.988 221.769,320.904 221.842,320.904 222.036 M318.513 224.613 C 318.382 224.745,316.941 224.947,315.311 225.063 L 312.349 225.274 315.319 225.228 C 317.209 225.198,318.436 225.035,318.693 224.778 C 318.915 224.556,319.019 224.374,318.924 224.374 C 318.829 224.374,318.644 224.482,318.513 224.613 " stroke="none" fill="#666c6d" fill-rule="evenodd"></path><path id="path4" d="M205.629 71.378 C 204.655 71.484,203.535 71.743,203.140 71.955 C 202.582 72.253,202.421 72.252,202.421 71.951 C 202.421 70.206,201.671 73.212,201.143 77.075 C 200.670 80.537,197.660 85.230,195.913 85.230 C 195.290 85.230,195.291 85.253,195.969 86.205 C 196.988 87.637,197.901 90.481,197.906 92.244 C 197.912 93.881,198.869 99.564,199.632 102.486 C 199.884 103.451,200.015 104.317,199.922 104.409 C 199.168 105.163,201.962 108.024,203.149 107.714 C 203.913 107.514,205.059 108.044,207.658 109.802 C 208.675 110.488,210.055 111.190,210.725 111.360 C 211.396 111.531,213.013 112.002,214.319 112.407 L 216.693 113.144 217.305 112.388 C 217.642 111.972,217.918 111.821,217.918 112.052 C 217.918 112.310,218.085 112.243,218.353 111.877 C 218.592 111.549,218.940 111.375,219.126 111.490 C 219.312 111.605,220.106 111.082,220.892 110.329 C 221.677 109.575,223.283 108.087,224.460 107.022 C 225.637 105.956,227.734 104.049,229.119 102.784 C 230.505 101.519,232.127 100.066,232.723 99.556 C 233.320 99.045,234.841 97.647,236.103 96.449 C 237.365 95.250,238.443 94.270,238.497 94.270 C 238.593 94.270,240.462 92.626,241.369 91.744 C 241.610 91.510,241.808 91.218,241.808 91.097 C 241.808 90.975,242.258 90.677,242.809 90.433 L 243.810 89.990 240.469 86.761 C 238.631 84.985,236.592 83.192,235.938 82.776 C 235.284 82.361,233.982 81.340,233.046 80.509 C 225.577 73.875,215.022 70.360,205.629 71.378 M114.706 84.203 C 113.676 85.058,112.554 85.913,112.213 86.103 C 111.067 86.740,100.685 96.968,96.025 102.051 L 91.408 107.089 91.305 114.642 C 91.203 122.158,91.198 122.204,90.319 123.870 C 87.617 128.996,79.474 129.916,74.815 125.622 L 73.400 124.318 71.783 126.001 C 70.285 127.559,68.580 129.663,67.972 130.703 C 67.782 131.030,67.910 131.016,68.483 130.646 C 70.079 129.617,71.988 130.952,76.683 136.377 C 80.083 140.306,80.335 141.080,80.979 149.570 L 81.195 152.410 82.519 151.434 C 86.167 148.746,87.504 148.345,92.817 148.346 C 98.313 148.347,105.321 149.280,110.412 150.689 C 113.289 151.485,113.998 151.544,121.872 151.653 C 130.985 151.779,129.789 151.604,138.822 154.143 C 139.830 154.427,141.066 155.072,141.681 155.637 L 142.766 156.631 141.843 157.610 C 141.335 158.148,140.344 158.957,139.639 159.407 L 138.359 160.226 139.646 160.606 C 140.354 160.815,141.315 161.236,141.780 161.541 C 143.259 162.510,145.956 161.383,149.954 158.126 C 151.326 157.008,153.123 155.550,153.948 154.886 C 155.385 153.728,157.012 152.967,158.918 152.559 C 160.132 152.299,160.045 151.442,158.759 150.981 C 154.839 149.576,149.511 146.512,145.322 143.256 C 143.081 141.514,142.229 141.498,141.461 143.185 C 140.790 144.657,138.234 144.456,126.877 142.036 C 124.302 141.487,121.905 141.035,121.550 141.031 C 120.277 141.016,113.464 139.395,112.737 138.934 C 112.329 138.675,110.004 138.179,107.571 137.830 C 101.028 136.894,98.466 136.283,96.341 135.154 L 94.431 134.140 94.267 131.558 C 94.135 129.458,94.232 128.612,94.788 127.038 C 95.607 124.723,99.070 117.721,99.473 117.568 C 99.881 117.414,101.695 113.390,101.695 112.639 C 101.695 111.705,102.539 111.540,104.350 112.119 L 105.959 112.634 108.266 111.560 C 109.535 110.969,112.699 109.815,115.297 108.996 C 120.721 107.286,122.071 106.278,122.523 103.601 C 122.653 102.833,122.879 101.981,123.025 101.707 C 123.171 101.434,123.377 100.666,123.484 100.001 C 123.626 99.110,123.914 98.668,124.575 98.327 C 130.214 95.411,128.637 90.375,120.331 84.775 C 116.568 82.238,117.017 82.283,114.706 84.203 M256.659 106.776 C 254.419 108.899,251.372 111.703,251.304 111.703 C 251.259 111.703,250.556 112.368,249.743 113.181 C 248.930 113.994,248.265 114.560,248.265 114.439 C 248.265 114.317,247.639 114.851,246.874 115.624 C 246.110 116.397,244.727 117.684,243.802 118.483 C 242.877 119.282,241.179 120.853,240.027 121.974 C 238.876 123.096,237.934 123.920,237.934 123.806 C 237.934 123.692,237.548 124.057,237.077 124.617 C 236.606 125.177,235.482 126.132,234.579 126.740 C 233.677 127.348,233.063 127.845,233.216 127.845 C 233.368 127.845,233.314 128.061,233.094 128.326 C 232.875 128.590,232.586 128.739,232.452 128.656 C 232.318 128.573,232.115 130.354,232.002 132.614 C 231.888 134.874,231.705 137.734,231.594 138.970 L 231.393 141.217 232.989 139.777 C 233.867 138.985,236.102 136.968,237.955 135.294 C 239.808 133.621,244.150 129.698,247.605 126.578 C 259.823 115.542,261.716 113.744,261.641 113.237 C 261.559 112.674,259.310 108.728,258.927 108.475 C 258.792 108.386,258.581 107.986,258.456 107.586 C 258.145 106.592,257.270 106.196,256.659 106.776 M172.720 113.342 C 166.905 114.223,157.224 116.870,157.224 117.579 C 157.224 118.418,175.671 119.036,176.851 118.237 C 177.331 117.912,179.976 116.578,182.728 115.273 C 185.480 113.969,187.794 112.848,187.870 112.783 C 188.318 112.399,175.923 112.857,172.720 113.342 M348.830 115.256 L 328.814 115.419 311.542 119.691 C 302.042 122.041,293.974 123.965,293.614 123.967 C 293.143 123.970,292.187 125.073,290.226 127.876 C 288.723 130.024,287.239 131.917,286.927 132.084 C 286.615 132.251,286.357 132.564,286.354 132.780 C 286.347 133.301,280.944 136.839,273.161 141.418 L 266.828 145.145 266.596 147.697 C 266.286 151.090,264.877 151.074,278.935 147.832 C 282.752 146.951,286.566 146.075,287.409 145.884 C 288.252 145.693,289.850 144.948,290.960 144.228 C 292.070 143.507,293.170 142.917,293.405 142.915 C 293.640 142.913,294.294 142.465,294.858 141.919 C 297.552 139.313,302.225 136.836,312.994 132.304 C 316.368 130.885,321.191 128.854,323.711 127.792 L 328.295 125.861 348.156 125.896 L 368.016 125.930 369.260 125.145 C 370.546 124.333,371.329 123.371,371.727 122.115 L 371.956 121.388 349.355 121.388 C 336.400 121.388,326.677 121.265,326.575 121.099 C 326.470 120.929,325.897 120.930,325.183 121.100 C 318.197 122.772,300.086 126.828,299.998 126.740 C 299.935 126.677,301.537 125.746,303.556 124.671 L 307.229 122.715 316.568 121.363 C 322.196 120.548,326.111 119.835,326.418 119.569 C 326.838 119.206,330.872 119.128,349.420 119.128 C 364.909 119.128,371.913 119.023,371.913 118.789 C 371.913 118.050,370.927 116.611,369.914 115.872 L 368.846 115.093 348.830 115.256 M211.990 118.650 C 211.427 119.063,211.457 119.119,212.475 119.564 C 213.071 119.824,214.213 120.632,215.012 121.358 C 215.811 122.084,216.602 122.679,216.770 122.679 C 217.056 122.680,223.055 127.163,224.002 128.083 C 224.240 128.316,224.878 128.735,225.419 129.014 C 228.085 130.393,222.227 124.761,217.595 121.492 C 213.187 118.382,212.695 118.133,211.990 118.650 M260.688 217.642 C 259.804 218.377,256.610 220.972,253.592 223.407 C 250.573 225.842,247.740 228.152,247.296 228.540 L 246.489 229.247 247.780 228.584 C 248.491 228.219,250.597 226.837,252.462 225.513 C 258.491 221.229,261.321 219.376,262.228 219.119 C 263.005 218.899,263.115 218.708,263.115 217.586 C 263.115 215.942,262.720 215.951,260.688 217.642 M240.839 220.279 C 239.572 220.588,239.500 220.648,240.274 220.750 C 241.418 220.900,241.432 220.850,239.590 223.063 C 238.592 224.262,237.934 225.406,237.788 226.197 C 237.661 226.881,237.279 228.272,236.938 229.288 C 236.300 231.191,236.091 234.705,236.616 234.705 C 237.684 234.705,237.855 234.326,237.693 232.309 C 237.443 229.198,239.208 224.682,242.024 221.227 C 243.207 219.775,243.136 219.718,240.839 220.279 M225.343 222.000 L 224.536 222.428 225.585 222.433 C 226.162 222.435,226.634 222.301,226.634 222.134 C 226.634 221.606,226.177 221.559,225.343 222.000 M194.586 222.942 C 195.027 223.865,195.282 224.046,196.105 224.019 C 197.031 223.989,198.989 223.509,198.474 223.438 C 198.345 223.420,197.298 223.052,196.148 222.619 L 194.057 221.832 194.586 222.942 M222.115 222.760 C 221.020 222.991,221.015 222.998,221.953 223.008 C 222.486 223.014,223.285 222.902,223.729 222.760 C 224.787 222.421,223.725 222.421,222.115 222.760 M202.663 223.642 C 203.418 223.710,204.653 223.710,205.408 223.642 C 206.162 223.574,205.545 223.519,204.036 223.519 C 202.526 223.519,201.909 223.574,202.663 223.642 " stroke="none" fill="#a04675" fill-rule="evenodd"></path></g></svg>