<svg id="svg" version="1.1" xmlns="http://www.w3.org/2000/svg" xmlns:xlink="http://www.w3.org/1999/xlink" width="400" height="285.7142857142857" viewBox="0, 0, 400,285.7142857142857"><g id="svgg"><path id="path0" d="M277.083 18.241 C 276.442 18.366,275.579 18.587,275.167 18.732 C 274.754 18.877,274.321 18.996,274.203 18.998 C 273.829 19.002,271.707 20.099,270.542 20.891 C 263.735 25.515,261.415 34.450,265.084 41.910 C 266.144 44.065,266.161 44.239,265.520 46.152 C 264.152 50.230,264.058 50.161,268.928 48.648 C 270.292 48.224,270.325 48.228,271.974 49.071 C 277.417 51.854,284.492 51.568,288.781 48.393 C 289.072 48.177,289.359 48.000,289.417 48.000 C 289.654 48.000,291.421 46.346,292.265 45.333 C 292.762 44.737,293.267 44.137,293.388 44.000 C 293.712 43.632,294.809 41.567,295.103 40.772 C 296.068 38.159,296.077 38.102,296.075 34.500 L 296.073 31.083 295.436 29.250 C 295.085 28.242,294.619 27.137,294.399 26.795 C 294.180 26.453,294.000 26.113,294.000 26.039 C 294.000 25.965,293.778 25.644,293.507 25.327 C 293.235 25.010,293.010 24.675,293.005 24.583 C 292.995 24.376,290.738 22.000,290.551 22.000 C 290.477 22.000,290.203 21.775,289.944 21.500 C 289.684 21.225,289.372 21.000,289.250 21.000 C 289.128 21.000,289.003 20.944,288.972 20.875 C 288.896 20.704,287.878 19.999,287.715 20.005 C 287.643 20.007,287.133 19.785,286.583 19.511 C 284.075 18.261,279.867 17.698,277.083 18.241 M271.941 32.178 C 274.447 33.392,273.559 37.168,270.767 37.166 C 269.200 37.165,268.168 36.139,268.167 34.581 C 268.166 32.487,270.072 31.274,271.941 32.178 M280.933 32.151 C 283.637 33.379,282.562 37.379,279.594 37.133 C 276.863 36.906,276.217 33.462,278.670 32.208 C 279.557 31.755,280.035 31.743,280.933 32.151 M290.311 32.289 C 292.466 33.885,291.538 37.167,288.930 37.167 C 286.856 37.167,285.613 35.211,286.523 33.377 C 287.230 31.951,289.121 31.408,290.311 32.289 M135.975 60.919 C 134.315 61.161,131.584 61.999,130.521 62.593 C 130.120 62.817,129.707 63.002,129.604 63.005 C 129.431 63.009,128.253 63.725,126.481 64.902 C 125.347 65.656,121.000 70.159,121.000 70.580 C 121.000 70.645,120.856 70.901,120.680 71.148 C 120.173 71.860,119.000 74.198,119.000 74.496 C 119.000 74.645,118.933 74.838,118.852 74.925 C 118.449 75.356,117.597 78.867,117.317 81.250 C 117.007 83.884,117.628 88.715,118.566 90.970 C 118.783 91.491,119.017 92.104,119.088 92.333 C 119.158 92.563,119.381 93.013,119.583 93.333 C 119.786 93.654,120.010 94.104,120.081 94.333 C 120.153 94.563,120.258 94.787,120.315 94.833 C 120.425 94.923,121.632 96.681,121.930 97.187 C 122.030 97.356,122.292 97.672,122.514 97.891 C 122.735 98.109,123.262 98.655,123.685 99.103 C 124.108 99.550,124.745 100.162,125.102 100.463 C 125.458 100.763,125.862 101.107,126.000 101.227 C 126.638 101.783,128.308 102.803,129.951 103.640 C 131.593 104.478,133.450 105.070,136.083 105.599 C 137.581 105.899,142.195 105.900,143.667 105.600 C 146.538 105.015,149.094 104.124,150.833 103.102 C 152.842 101.922,152.844 101.922,157.250 103.338 C 161.305 104.641,161.284 104.680,159.482 99.083 C 158.881 97.218,158.828 95.674,159.340 94.917 C 159.713 94.364,161.000 91.737,161.000 91.528 C 161.000 91.456,161.188 90.918,161.417 90.333 C 163.153 85.903,162.697 78.124,160.435 73.583 C 159.736 72.180,158.470 70.109,158.215 69.950 C 158.097 69.877,158.000 69.740,158.000 69.646 C 158.000 69.186,154.714 65.845,153.431 65.000 C 153.223 64.862,152.722 64.531,152.318 64.263 C 150.931 63.344,150.416 63.047,149.833 62.829 C 149.512 62.709,149.171 62.552,149.075 62.479 C 147.305 61.149,140.200 60.303,135.975 60.919 M215.917 65.857 C 210.526 66.543,205.053 69.230,201.371 72.998 C 199.800 74.606,199.815 74.833,201.425 73.816 C 214.229 65.729,232.937 70.919,239.950 84.503 L 240.817 86.181 239.693 87.299 C 236.348 90.627,236.061 96.882,239.087 100.504 C 239.655 101.185,240.507 101.919,240.867 102.039 C 241.115 102.122,240.352 105.293,239.649 107.100 C 237.598 112.373,233.245 115.888,227.564 116.858 C 226.438 117.050,226.356 117.042,225.917 116.697 C 225.402 116.292,221.989 116.149,221.324 116.505 C 220.598 116.893,220.321 118.004,220.745 118.824 C 221.401 120.092,225.595 120.039,226.354 118.753 C 226.610 118.318,226.814 118.166,227.141 118.165 C 227.884 118.163,230.816 117.353,232.068 116.805 C 236.218 114.987,239.358 111.473,241.015 106.792 C 241.234 106.173,241.468 105.667,241.535 105.667 C 241.602 105.667,241.613 105.553,241.559 105.415 C 241.506 105.276,241.536 105.070,241.625 104.956 C 241.715 104.843,241.794 104.638,241.800 104.500 C 241.807 104.362,241.875 103.875,241.950 103.417 L 242.086 102.583 243.335 102.489 C 250.658 101.938,251.382 87.718,244.178 85.909 C 243.421 85.718,243.415 85.711,243.194 84.734 C 240.383 72.339,228.672 64.235,215.917 65.857 M153.348 72.810 C 153.753 73.311,153.750 73.583,153.333 74.000 C 153.006 74.328,152.778 74.333,139.843 74.333 L 126.686 74.333 126.426 73.963 C 126.070 73.454,126.099 73.219,126.579 72.739 L 126.991 72.327 140.010 72.372 L 153.030 72.417 153.348 72.810 M140.916 79.106 C 141.374 79.282,141.550 79.983,141.251 80.439 L 140.992 80.833 133.839 80.833 L 126.686 80.833 126.426 80.463 C 126.083 79.973,126.099 79.734,126.500 79.333 C 126.836 78.997,140.088 78.789,140.916 79.106 M153.333 79.333 C 153.743 79.743,153.753 80.024,153.375 80.486 C 153.091 80.833,152.987 80.842,149.505 80.797 L 145.926 80.750 145.724 80.344 C 145.515 79.925,145.664 79.396,146.067 79.128 C 146.549 78.806,152.988 78.988,153.333 79.333 M134.296 85.759 C 134.736 86.068,134.794 86.849,134.405 87.238 C 133.623 88.020,126.167 87.510,126.167 86.675 C 126.167 86.327,126.562 85.678,126.815 85.610 C 127.654 85.386,133.942 85.512,134.296 85.759 M153.061 85.687 C 153.287 85.790,153.515 86.034,153.567 86.229 C 153.912 87.513,153.993 87.500,145.750 87.500 C 138.722 87.500,138.490 87.490,138.167 87.167 C 137.645 86.645,137.814 85.861,138.500 85.616 C 139.022 85.429,152.641 85.496,153.061 85.687 M140.945 92.603 C 141.201 92.994,141.205 93.084,140.984 93.478 L 140.737 93.917 133.667 93.917 L 126.596 93.917 126.350 93.478 C 126.129 93.084,126.133 92.994,126.389 92.603 L 126.674 92.167 133.667 92.167 L 140.659 92.167 140.945 92.603 M153.445 92.603 C 153.701 92.993,153.705 93.084,153.484 93.478 L 153.237 93.917 149.738 93.962 C 145.895 94.011,145.625 93.953,145.625 93.083 C 145.625 92.229,145.903 92.167,149.695 92.167 L 153.159 92.167 153.445 92.603 M242.909 135.292 C 246.871 141.279,239.962 152.951,226.051 163.774 C 223.903 165.445,220.769 167.667,220.560 167.667 C 220.395 167.667,218.855 165.409,218.419 164.528 C 214.743 157.107,214.824 149.098,218.670 139.917 C 219.054 139.000,219.501 137.871,219.664 137.408 L 219.960 136.565 217.605 137.198 C 212.970 138.444,208.151 140.186,203.776 142.198 C 202.570 142.752,201.115 143.380,200.543 143.594 C 199.970 143.807,199.251 144.173,198.944 144.407 C 198.636 144.642,198.330 144.833,198.263 144.833 C 197.989 144.833,196.096 146.634,195.210 147.737 C 194.689 148.386,194.204 148.942,194.132 148.972 C 194.059 149.003,194.000 149.125,194.000 149.243 C 194.000 149.362,193.889 149.552,193.753 149.664 C 193.525 149.854,193.309 150.212,191.998 152.583 C 190.974 154.434,189.742 157.150,189.125 158.917 C 189.029 159.192,188.746 159.979,188.497 160.667 C 187.669 162.953,185.993 168.586,185.993 169.083 C 185.993 169.267,185.807 170.050,185.580 170.825 C 185.353 171.600,185.224 172.290,185.293 172.360 C 185.363 172.430,188.719 172.508,192.752 172.535 C 203.056 172.603,202.759 172.432,205.419 179.833 C 205.634 180.429,206.068 181.629,206.384 182.500 C 206.700 183.371,207.312 185.058,207.743 186.250 C 209.092 189.974,209.675 191.560,209.948 192.250 C 210.093 192.617,210.308 193.217,210.427 193.583 C 210.545 193.950,210.993 195.188,211.421 196.333 C 211.849 197.479,212.299 198.717,212.421 199.083 C 212.543 199.450,212.991 200.688,213.416 201.833 C 213.842 202.979,214.556 204.929,215.002 206.167 C 215.448 207.404,216.089 209.167,216.425 210.083 C 216.762 211.000,217.281 212.425,217.579 213.250 C 217.877 214.075,218.778 216.550,219.580 218.750 C 221.945 225.231,222.172 225.857,222.613 227.131 C 223.074 228.459,223.085 228.464,224.250 227.869 C 228.339 225.779,234.642 226.813,240.427 230.524 C 243.037 232.198,245.275 231.975,248.716 229.698 C 249.359 229.272,249.375 229.270,249.607 229.590 C 249.738 229.770,251.059 231.541,252.543 233.525 L 255.243 237.134 258.626 237.156 L 262.009 237.179 261.926 236.798 C 261.336 234.111,261.367 233.841,262.334 233.208 C 262.790 232.910,263.220 232.664,263.290 232.660 C 263.360 232.656,263.676 232.431,263.994 232.160 C 264.311 231.889,264.667 231.667,264.785 231.667 C 264.903 231.667,265.000 231.610,265.000 231.542 C 265.000 231.473,265.357 231.198,265.792 230.930 C 266.227 230.663,266.749 230.296,266.952 230.115 C 267.155 229.935,267.465 229.704,267.641 229.602 C 267.817 229.500,268.428 229.079,269.000 228.667 C 269.572 228.254,270.185 227.832,270.364 227.729 C 270.542 227.626,270.893 227.345,271.145 227.104 C 271.396 226.864,271.691 226.667,271.801 226.667 C 271.910 226.667,272.000 226.603,272.000 226.524 C 272.000 226.446,272.450 226.066,273.000 225.680 C 273.550 225.294,274.000 224.909,274.000 224.823 C 274.000 224.737,274.084 224.667,274.186 224.667 C 274.288 224.667,274.880 224.217,275.500 223.667 C 276.120 223.117,276.671 222.667,276.723 222.667 C 276.775 222.667,276.992 222.498,277.205 222.292 C 277.417 222.085,278.152 221.431,278.837 220.836 C 281.181 218.805,284.629 215.281,286.333 213.176 C 286.654 212.780,287.142 212.184,287.417 211.853 C 287.692 211.521,287.992 211.131,288.083 210.986 C 288.282 210.673,289.397 209.058,289.745 208.579 C 289.880 208.394,290.016 208.094,290.047 207.913 C 290.079 207.732,290.385 207.033,290.728 206.360 C 292.355 203.173,293.047 199.389,292.509 196.637 C 292.395 196.057,291.303 193.071,290.082 190.000 C 288.861 186.929,287.450 183.367,286.948 182.083 C 286.445 180.800,285.530 178.475,284.915 176.917 C 282.986 172.027,281.820 169.041,277.496 157.917 C 276.034 154.156,275.500 152.670,275.500 152.364 C 275.500 152.175,275.434 151.979,275.354 151.929 C 275.273 151.880,275.121 151.495,275.015 151.074 C 274.909 150.653,274.637 149.926,274.411 149.457 C 274.185 148.988,274.000 148.508,274.000 148.390 C 274.000 148.272,273.820 147.770,273.601 147.273 C 273.381 146.776,273.146 146.118,273.078 145.810 C 272.747 144.300,269.177 141.421,265.487 139.688 C 260.016 137.119,253.336 135.606,243.699 134.752 L 242.481 134.645 242.909 135.292 M266.007 184.438 C 266.116 184.768,266.488 185.611,266.835 186.311 C 267.181 187.011,267.814 188.333,268.242 189.250 C 269.586 192.129,270.077 193.079,270.292 193.217 C 270.406 193.290,270.500 193.412,270.500 193.487 C 270.500 193.563,271.137 194.945,271.917 196.559 C 272.696 198.173,273.333 199.564,273.333 199.651 C 273.333 199.738,272.340 200.822,271.125 202.060 C 269.910 203.298,268.504 204.777,268.000 205.347 C 267.496 205.916,266.858 206.625,266.583 206.921 C 265.787 207.780,265.042 208.605,262.998 210.889 L 261.083 213.028 261.036 211.538 C 261.010 210.719,261.141 208.781,261.327 207.233 C 261.513 205.684,261.746 203.704,261.845 202.833 C 261.943 201.963,262.245 199.975,262.515 198.417 C 262.785 196.858,263.003 195.471,262.999 195.333 C 262.990 195.047,263.784 191.116,264.496 187.917 C 264.761 186.725,265.014 185.487,265.058 185.167 C 265.263 183.665,265.653 183.366,266.007 184.438 M77.702 213.639 C 76.458 214.303,76.499 213.952,76.506 223.879 C 76.512 234.149,76.569 234.716,77.834 237.148 C 78.229 237.909,78.654 238.569,78.777 238.617 C 78.899 238.664,79.002 238.788,79.004 238.893 C 79.009 239.094,80.544 240.667,80.735 240.667 C 80.797 240.667,81.003 240.812,81.193 240.989 C 81.383 241.166,82.186 241.635,82.978 242.031 L 84.417 242.750 90.333 242.750 L 96.250 242.750 97.667 242.044 C 100.163 240.801,102.329 238.634,103.138 236.571 L 103.459 235.750 105.188 235.652 C 106.815 235.559,108.000 235.289,108.000 235.010 C 108.000 234.942,108.171 234.809,108.379 234.714 C 108.587 234.619,108.962 234.137,109.212 233.643 L 109.667 232.745 109.667 226.824 L 109.667 220.902 109.208 220.007 C 108.956 219.515,108.600 219.031,108.417 218.931 C 108.233 218.832,108.043 218.696,107.993 218.630 C 107.771 218.334,106.360 218.000,105.334 218.000 L 104.210 218.000 104.133 216.252 C 103.993 213.109,105.052 213.332,90.308 213.340 C 79.146 213.347,78.209 213.369,77.702 213.639 M106.695 220.942 C 107.139 221.344,107.169 232.319,106.727 232.686 C 106.176 233.143,103.932 233.108,104.057 232.644 C 104.115 232.428,104.163 229.644,104.164 226.458 L 104.167 220.667 105.279 220.667 C 106.079 220.667,106.476 220.744,106.695 220.942 " stroke="none" fill="#f2337b" fill-rule="evenodd"></path><path id="path1" d="M343.983 126.759 C 342.170 127.318,339.741 130.820,338.904 134.083 C 338.209 136.791,337.973 137.816,337.564 139.917 C 337.314 141.200,337.060 142.625,337.000 143.083 C 336.535 146.616,332.919 156.944,331.836 157.833 C 331.780 157.879,331.533 158.265,331.287 158.690 C 331.042 159.115,330.692 159.640,330.511 159.857 C 330.330 160.073,329.752 160.775,329.226 161.417 C 328.701 162.058,327.928 162.921,327.508 163.333 C 326.386 164.434,324.816 165.833,324.701 165.833 C 324.646 165.833,324.396 166.030,324.145 166.271 C 323.893 166.512,323.544 166.793,323.368 166.896 C 322.810 167.223,321.092 168.408,320.863 168.625 C 320.742 168.740,320.536 168.833,320.405 168.833 C 320.274 168.833,320.167 168.896,320.167 168.974 C 320.167 169.051,319.773 169.327,319.292 169.587 C 318.810 169.847,318.229 170.185,318.000 170.337 C 317.035 170.980,314.300 172.499,311.935 173.706 C 311.741 173.804,311.471 173.948,311.333 174.025 C 311.196 174.101,310.671 174.393,310.167 174.672 C 308.237 175.740,306.225 177.467,304.897 179.192 C 304.194 180.106,304.146 180.136,303.744 179.928 C 302.119 179.085,300.428 176.436,299.907 173.917 C 299.618 172.520,299.081 169.833,298.774 168.250 C 298.048 164.508,296.320 159.629,295.391 158.701 C 295.268 158.577,295.167 158.411,295.167 158.331 C 295.167 157.491,290.368 152.833,289.502 152.833 C 289.432 152.833,289.034 152.643,288.617 152.410 C 286.888 151.443,282.946 150.825,280.599 151.153 C 278.188 151.490,275.810 152.133,275.576 152.511 C 275.536 152.577,276.430 155.020,277.565 157.941 C 278.699 160.861,279.904 163.962,280.242 164.833 C 280.581 165.704,281.224 167.354,281.673 168.500 C 282.121 169.646,283.060 172.046,283.759 173.833 C 285.295 177.760,287.133 182.418,289.756 189.031 L 291.718 193.979 292.567 194.177 C 296.215 195.025,301.298 197.929,303.875 200.635 C 305.027 201.845,305.025 201.855,304.082 199.478 C 303.669 198.436,303.170 197.171,302.973 196.667 C 299.963 188.945,293.377 177.209,287.783 169.601 C 285.983 167.152,283.368 163.687,282.932 163.172 C 282.639 162.826,282.634 162.799,282.899 163.004 C 284.315 164.097,290.556 171.614,293.482 175.750 C 298.726 183.164,304.145 193.703,306.658 201.373 C 307.145 202.859,307.266 202.880,307.394 201.502 C 307.962 195.385,312.872 189.938,319.255 188.343 C 320.925 187.925,320.951 187.977,319.463 188.754 C 311.206 193.070,306.910 201.144,308.890 208.625 C 309.223 209.886,309.575 211.235,309.671 211.625 L 309.846 212.333 314.173 212.333 C 316.611 212.333,318.500 212.268,318.500 212.184 C 318.500 211.894,326.523 205.973,330.042 203.667 L 331.167 202.929 331.167 201.390 C 331.167 198.339,332.183 193.174,333.122 191.456 L 333.417 190.917 333.465 193.000 C 333.520 195.410,333.224 197.725,332.515 200.417 C 331.935 202.622,331.821 202.502,333.466 201.419 C 334.979 200.424,340.125 197.323,342.333 196.076 C 345.543 194.263,354.082 190.193,354.274 190.385 C 354.309 190.420,353.156 191.162,351.711 192.034 C 346.565 195.139,345.028 196.086,340.583 198.888 C 334.366 202.808,329.116 206.176,328.917 206.371 C 328.808 206.477,329.096 206.498,329.750 206.429 C 335.500 205.829,351.982 206.300,350.063 207.009 C 348.514 207.582,335.058 207.815,330.128 207.354 C 327.806 207.137,327.648 207.141,327.211 207.431 C 326.958 207.599,325.145 208.771,323.183 210.035 L 319.617 212.333 330.558 212.333 L 341.500 212.333 341.500 215.753 L 341.500 219.172 342.042 219.405 C 342.340 219.533,342.996 219.820,343.500 220.043 C 348.323 222.169,354.726 222.621,357.719 221.045 C 358.681 220.538,360.000 219.455,360.000 219.172 C 360.000 219.090,360.103 218.921,360.228 218.795 C 361.474 217.549,361.582 213.000,360.426 210.417 C 359.621 208.617,358.648 206.833,358.472 206.833 C 358.400 206.833,358.229 206.615,358.091 206.349 C 357.823 205.829,354.932 202.833,354.699 202.833 C 354.401 202.833,353.027 201.169,352.919 200.678 C 352.644 199.424,353.879 197.498,355.387 196.830 C 355.495 196.782,355.883 196.557,356.250 196.330 C 357.018 195.854,357.553 195.552,358.833 194.868 C 361.076 193.670,361.766 193.282,362.000 193.090 C 362.137 192.977,362.383 192.837,362.545 192.779 C 362.809 192.686,364.074 191.831,365.302 190.917 C 368.492 188.541,369.770 184.518,368.345 181.333 C 368.038 180.646,367.628 179.910,367.435 179.699 C 366.368 178.532,365.665 177.833,365.557 177.833 C 365.490 177.833,365.243 177.654,365.009 177.435 C 362.155 174.765,356.456 175.242,353.210 178.422 L 351.833 179.772 351.833 179.047 C 351.833 177.712,352.699 176.465,354.417 175.327 C 354.875 175.024,355.451 174.640,355.696 174.475 C 356.174 174.153,360.157 172.137,361.667 171.453 C 365.857 169.554,368.141 168.322,370.235 166.833 C 372.465 165.248,373.715 161.363,372.513 159.750 C 372.445 159.658,372.288 159.321,372.164 159.000 C 371.663 157.699,370.565 156.234,369.577 155.546 C 368.116 154.530,364.979 153.213,361.250 152.050 C 360.368 151.775,360.189 151.707,359.000 151.196 C 358.587 151.018,358.072 150.819,357.856 150.752 C 357.254 150.568,355.057 149.353,354.828 149.077 C 354.717 148.943,354.541 148.831,354.438 148.829 C 354.188 148.823,353.205 147.893,352.584 147.075 C 351.061 145.070,350.687 142.844,351.423 140.167 C 352.361 136.753,351.325 130.659,349.496 128.830 C 349.350 128.683,349.122 128.418,348.990 128.240 C 347.946 126.833,345.802 126.199,343.983 126.759 M340.624 168.492 C 338.617 171.560,336.410 174.981,334.115 178.583 C 332.654 180.875,331.216 183.125,330.917 183.583 C 330.619 184.042,329.882 185.193,329.279 186.143 L 328.183 187.869 327.842 187.309 C 327.403 186.588,327.265 186.930,329.156 184.040 L 330.813 181.510 330.639 179.880 C 330.269 176.413,330.999 168.033,331.557 169.334 C 331.788 169.872,331.789 178.037,331.558 179.458 C 331.407 180.388,331.493 180.849,331.713 180.292 C 332.006 179.552,340.848 167.667,341.106 167.667 C 341.138 167.667,340.921 168.038,340.624 168.492 M269.556 194.125 C 268.218 196.586,268.485 199.096,270.291 201.026 C 271.222 202.022,271.204 202.024,272.378 200.756 L 273.340 199.717 271.811 196.442 C 270.064 192.699,270.236 192.875,269.556 194.125 M292.500 196.028 C 292.500 196.063,292.576 196.702,292.670 197.448 C 292.997 200.059,292.407 202.931,290.888 206.117 C 290.475 206.983,290.162 207.718,290.193 207.748 C 290.225 207.779,290.850 208.042,291.583 208.332 C 292.833 208.827,294.814 209.800,295.000 210.011 C 295.046 210.063,295.421 210.347,295.833 210.641 C 296.246 210.936,296.908 211.437,297.305 211.755 L 298.026 212.333 303.159 212.333 L 308.292 212.333 307.729 210.375 C 307.420 209.298,306.748 207.142,306.235 205.583 L 305.304 202.750 304.444 202.063 C 301.666 199.843,296.476 197.090,293.621 196.321 C 293.268 196.226,292.871 196.107,292.740 196.056 C 292.608 196.006,292.500 195.993,292.500 196.028 " stroke="none" fill="#49cbdb" fill-rule="evenodd"></path><path id="path2" d="M227.167 52.577 C 227.029 52.611,226.017 52.728,224.917 52.836 C 223.817 52.945,222.242 53.219,221.417 53.445 C 220.592 53.671,219.624 53.928,219.267 54.017 C 218.910 54.107,218.214 54.364,217.720 54.590 C 217.227 54.815,216.740 55.000,216.638 55.000 C 216.537 55.000,216.088 55.225,215.641 55.500 C 215.194 55.775,214.765 56.000,214.687 56.000 C 214.610 56.000,213.964 56.394,213.253 56.875 C 212.542 57.356,211.828 57.828,211.666 57.923 C 210.928 58.355,207.000 62.295,207.000 62.602 C 207.000 62.720,206.902 62.877,206.783 62.950 C 206.457 63.151,205.000 65.422,205.000 65.731 C 205.000 65.879,204.939 66.000,204.865 66.000 C 204.573 66.000,203.000 70.250,203.000 71.040 C 203.000 71.494,203.017 71.486,204.418 70.430 C 214.001 63.202,228.588 64.436,237.104 73.195 C 240.426 76.613,242.093 79.822,243.271 85.066 C 243.405 85.662,243.480 85.732,244.178 85.908 C 251.533 87.761,250.523 102.592,243.047 102.534 L 242.177 102.527 242.079 103.139 C 241.502 106.773,240.701 109.528,239.437 112.234 C 238.546 114.140,238.506 114.695,238.840 120.440 C 239.385 129.818,241.013 134.516,243.795 134.745 C 253.253 135.521,260.108 137.111,265.750 139.837 C 268.936 141.375,272.137 143.736,272.537 144.841 C 272.680 145.235,275.000 141.302,275.000 140.665 C 275.000 140.583,275.216 140.043,275.479 139.466 C 277.829 134.318,277.810 127.821,275.435 124.607 C 274.737 123.662,272.919 121.812,272.012 121.122 C 271.502 120.734,270.939 120.285,270.761 120.125 C 270.583 119.965,270.380 119.833,270.310 119.833 C 270.240 119.833,269.850 119.608,269.443 119.333 C 269.035 119.058,268.643 118.833,268.572 118.833 C 268.501 118.833,268.325 118.731,268.180 118.606 C 267.940 118.399,265.989 117.333,263.167 115.867 C 262.571 115.558,261.858 115.179,261.583 115.025 C 259.976 114.124,259.073 113.593,259.000 113.506 C 258.954 113.452,258.504 113.115,258.000 112.758 C 255.318 110.859,253.845 108.596,253.440 105.750 C 253.282 104.645,253.863 101.485,254.465 100.167 C 255.083 98.815,255.697 97.264,255.917 96.500 C 256.035 96.087,256.281 95.375,256.462 94.917 C 259.936 86.153,258.787 73.489,253.832 65.917 C 253.472 65.367,253.123 64.804,253.056 64.667 C 252.556 63.642,247.069 58.000,246.572 58.000 C 246.463 58.000,246.277 57.883,246.157 57.739 C 245.677 57.160,243.093 55.683,240.750 54.648 C 239.137 53.935,235.924 53.127,233.583 52.845 C 231.897 52.642,227.626 52.463,227.167 52.577 M212.750 70.100 C 208.146 70.767,205.179 71.692,202.278 73.366 C 201.621 73.745,200.633 74.285,200.083 74.567 C 199.068 75.088,198.743 75.330,197.274 76.667 C 196.386 77.474,194.000 80.273,194.000 80.508 C 194.000 80.586,193.775 80.983,193.500 81.391 C 193.225 81.798,193.000 82.189,193.000 82.258 C 193.000 82.328,192.804 82.799,192.564 83.306 C 189.837 89.071,193.319 96.741,199.250 98.032 C 204.375 99.148,208.847 97.053,215.667 90.339 C 223.422 82.705,224.723 82.531,230.500 88.355 C 233.309 91.186,234.863 92.501,236.224 93.196 C 236.994 93.589,236.888 93.717,237.216 92.000 C 237.600 89.998,238.449 88.395,239.768 87.187 L 240.811 86.231 239.979 84.592 C 236.234 77.216,228.819 71.873,220.303 70.413 C 218.813 70.158,213.791 69.950,212.750 70.100 M319.500 72.711 C 319.500 72.747,319.819 73.031,320.208 73.340 C 320.598 73.650,320.811 73.772,320.681 73.611 C 320.438 73.307,319.500 72.593,319.500 72.711 M290.249 77.168 C 290.083 77.352,289.986 77.541,290.034 77.590 C 290.082 77.638,290.246 77.487,290.398 77.255 C 290.730 76.748,290.664 76.709,290.249 77.168 M305.127 110.785 C 305.334 110.824,305.634 110.823,305.794 110.781 C 305.953 110.739,305.783 110.707,305.417 110.709 C 305.050 110.711,304.920 110.745,305.127 110.785 M306.795 110.787 C 307.094 110.825,307.544 110.824,307.795 110.786 C 308.045 110.748,307.800 110.717,307.250 110.718 C 306.700 110.719,306.495 110.750,306.795 110.787 M308.625 110.784 C 308.831 110.824,309.169 110.824,309.375 110.784 C 309.581 110.745,309.412 110.712,309.000 110.712 C 308.587 110.712,308.419 110.745,308.625 110.784 M211.980 120.125 C 211.837 120.285,211.352 120.730,210.902 121.114 C 208.815 122.892,206.274 125.676,205.000 127.582 C 203.987 129.096,201.994 132.900,202.002 133.302 C 202.004 133.365,201.784 134.129,201.514 135.000 C 200.797 137.317,200.252 142.973,200.702 143.424 C 200.768 143.490,201.968 143.018,203.369 142.374 C 208.248 140.135,213.241 138.315,217.675 137.159 C 218.816 136.862,219.806 136.570,219.874 136.510 C 220.390 136.060,221.561 130.004,221.762 126.746 L 221.876 124.909 220.813 124.692 C 218.647 124.249,215.538 122.568,213.320 120.641 C 212.256 119.716,212.323 119.742,211.980 120.125 M104.602 172.868 C 103.567 173.244,102.308 174.487,101.653 175.777 C 101.185 176.699,101.073 177.124,101.026 178.159 C 100.969 179.411,100.992 179.516,101.838 181.833 C 102.039 182.386,102.702 184.225,103.158 185.500 C 103.564 186.633,104.467 189.103,105.048 190.667 C 105.371 191.537,105.729 192.512,105.843 192.833 C 105.957 193.154,106.253 193.979,106.500 194.667 C 106.747 195.354,107.043 196.179,107.158 196.500 C 107.550 197.596,108.461 200.082,108.959 201.417 C 109.232 202.150,109.590 203.125,109.753 203.583 C 110.308 205.142,110.962 206.914,111.482 208.261 C 111.767 209.001,112.000 209.702,112.000 209.820 C 112.000 209.937,112.112 210.269,112.248 210.558 C 112.520 211.133,113.034 212.528,115.059 218.188 C 115.375 219.070,115.716 219.947,115.816 220.135 C 115.917 220.324,116.000 220.600,116.000 220.748 C 116.000 220.897,116.157 221.362,116.348 221.782 C 116.539 222.202,116.865 223.042,117.072 223.648 C 117.681 225.427,118.458 227.555,119.488 230.264 C 119.769 231.005,120.000 231.703,120.000 231.815 C 120.000 231.927,120.157 232.362,120.348 232.782 C 120.539 233.202,120.865 234.042,121.072 234.648 C 122.297 238.229,123.078 240.130,123.568 240.718 C 123.813 241.011,124.066 241.326,124.131 241.417 C 124.197 241.509,124.400 241.678,124.583 241.794 C 126.081 242.741,127.596 242.642,109.991 242.747 C 90.682 242.862,91.118 242.862,67.750 242.746 C 47.740 242.647,46.944 242.671,45.138 243.425 C 43.407 244.148,41.000 246.350,41.000 247.210 C 41.000 247.333,40.937 247.505,40.861 247.592 C 40.572 247.920,40.166 249.290,40.062 250.286 C 39.784 252.947,41.421 256.490,43.512 257.750 C 45.199 258.767,46.664 259.167,48.704 259.167 L 50.136 259.167 49.904 260.042 C 49.112 263.013,50.364 265.792,53.083 267.102 L 54.083 267.583 202.750 267.583 L 351.417 267.583 352.417 267.100 C 355.295 265.707,356.606 262.368,355.417 259.458 C 355.309 259.193,355.436 259.167,356.818 259.167 C 361.806 259.167,365.321 255.825,365.322 251.083 C 365.322 249.685,365.007 248.125,364.569 247.354 C 364.394 247.045,364.155 246.619,364.038 246.407 C 363.464 245.366,361.802 244.016,360.370 243.428 C 358.661 242.727,357.627 242.677,344.542 242.672 C 336.293 242.668,332.167 242.610,332.167 242.498 C 332.167 242.405,332.347 241.636,332.567 240.789 C 332.786 239.943,333.047 238.838,333.146 238.333 C 333.245 237.829,333.475 236.892,333.658 236.250 C 333.841 235.608,333.992 234.910,333.995 234.698 C 333.998 234.486,334.195 233.635,334.433 232.807 C 334.672 231.979,334.925 230.914,334.996 230.442 C 335.120 229.629,335.461 228.185,336.478 224.167 L 336.921 222.417 339.252 222.333 L 341.583 222.250 338.015 222.125 C 333.679 221.973,304.141 222.000,300.417 222.159 L 297.750 222.273 300.119 222.303 L 302.487 222.333 302.673 223.022 C 302.774 223.400,302.921 224.098,302.998 224.573 C 303.076 225.048,303.323 226.144,303.547 227.010 C 303.772 227.875,304.030 228.958,304.121 229.417 C 304.212 229.875,304.453 230.925,304.656 231.750 C 304.859 232.575,305.251 234.225,305.526 235.417 C 305.802 236.608,306.241 238.483,306.502 239.583 C 306.763 240.683,307.017 241.827,307.067 242.125 L 307.158 242.667 287.239 242.667 L 267.320 242.667 267.661 242.301 C 268.685 241.201,268.517 238.578,267.365 237.700 L 266.793 237.263 246.230 237.314 L 225.667 237.365 225.667 236.743 C 225.667 236.402,225.577 235.823,225.468 235.458 L 225.269 234.795 224.426 234.894 C 210.427 236.536,185.908 235.026,172.917 231.723 C 172.367 231.583,171.317 231.334,170.583 231.170 C 136.698 223.570,110.302 202.935,105.768 180.500 C 105.085 177.120,104.782 172.949,105.208 172.777 C 105.610 172.615,105.078 172.695,104.602 172.868 " stroke="none" fill="#373067" fill-rule="evenodd"></path><path id="path3" d="M269.502 32.212 C 268.604 32.687,268.166 33.464,268.167 34.581 C 268.169 37.413,271.827 38.212,273.134 35.665 C 274.307 33.382,271.799 30.998,269.502 32.212 M278.670 32.208 C 276.217 33.462,276.863 36.906,279.594 37.133 C 282.562 37.379,283.637 33.379,280.933 32.151 C 280.035 31.743,279.557 31.755,278.670 32.208 M287.667 32.198 C 286.189 32.957,285.746 34.944,286.780 36.172 C 288.435 38.139,291.500 37.084,291.500 34.547 C 291.500 32.511,289.472 31.269,287.667 32.198 M126.579 72.739 C 126.099 73.219,126.070 73.454,126.426 73.963 L 126.686 74.333 139.843 74.333 C 152.778 74.333,153.006 74.328,153.333 74.000 C 153.750 73.583,153.753 73.311,153.348 72.810 L 153.030 72.417 140.010 72.372 L 126.991 72.327 126.579 72.739 M304.175 73.748 C 285.812 77.927,286.957 103.820,305.602 106.019 C 317.900 107.470,327.279 94.249,322.009 82.893 C 318.954 76.310,310.951 72.206,304.175 73.748 M307.566 75.264 C 307.908 76.157,307.583 77.798,307.100 77.613 C 306.825 77.507,306.692 75.364,306.944 75.111 C 307.141 74.914,307.462 74.993,307.566 75.264 M300.288 77.042 C 301.221 78.239,301.530 79.527,300.820 79.253 C 300.469 79.119,299.599 77.417,299.719 77.103 C 299.843 76.780,300.066 76.756,300.288 77.042 M314.335 78.248 C 313.767 79.240,313.392 79.531,313.162 79.159 C 313.026 78.940,313.588 77.771,314.142 77.120 C 314.775 76.375,314.920 77.224,314.335 78.248 M126.500 79.333 C 126.099 79.734,126.083 79.973,126.426 80.463 L 126.686 80.833 133.839 80.833 L 140.992 80.833 141.251 80.439 C 141.550 79.983,141.374 79.282,140.916 79.106 C 140.088 78.789,126.836 78.997,126.500 79.333 M146.067 79.128 C 145.664 79.396,145.515 79.925,145.724 80.344 L 145.926 80.750 149.505 80.797 C 152.987 80.842,153.091 80.833,153.375 80.486 C 153.753 80.024,153.743 79.743,153.333 79.333 C 152.988 78.988,146.549 78.806,146.067 79.128 M307.628 84.273 C 307.664 88.179,307.713 88.998,307.919 89.169 C 308.055 89.282,308.167 89.497,308.167 89.647 C 308.167 89.798,309.407 91.157,310.922 92.669 C 313.184 94.925,313.669 95.491,313.630 95.832 C 313.528 96.735,313.045 96.415,310.127 93.513 C 308.552 91.948,307.139 90.667,306.986 90.667 C 306.519 90.667,306.281 90.228,306.423 89.627 C 306.493 89.328,306.578 87.021,306.611 84.500 C 306.677 79.437,306.675 79.454,307.208 79.530 L 307.583 79.583 307.628 84.273 M295.687 82.705 C 296.654 83.237,297.019 83.835,296.375 83.832 C 295.563 83.827,294.085 82.637,294.444 82.278 C 294.608 82.115,294.622 82.120,295.687 82.705 M319.979 82.391 C 320.192 82.648,319.983 82.872,318.960 83.485 C 318.294 83.884,317.750 83.895,317.750 83.509 C 317.750 83.019,319.691 82.045,319.979 82.391 M222.807 84.724 C 220.999 85.395,219.877 86.299,215.333 90.748 C 210.384 95.594,208.230 97.038,204.750 97.842 L 203.133 98.216 203.247 99.316 C 203.310 99.921,203.471 100.979,203.605 101.667 C 203.739 102.354,203.919 103.329,204.005 103.833 C 204.332 105.763,205.590 109.550,206.513 111.386 C 206.781 111.920,207.000 112.434,207.000 112.529 C 207.000 112.624,207.225 113.035,207.500 113.443 C 207.775 113.850,208.000 114.263,208.000 114.359 C 208.000 114.456,208.225 114.819,208.500 115.167 C 208.775 115.514,209.000 115.853,209.000 115.920 C 209.000 115.988,209.228 116.314,209.506 116.646 C 211.693 119.255,212.210 119.833,212.350 119.833 C 212.438 119.833,213.007 120.255,213.614 120.770 C 215.796 122.621,217.892 123.761,220.482 124.507 L 221.881 124.909 221.781 127.413 C 221.630 131.181,220.602 135.312,218.671 139.917 C 214.825 149.088,214.743 157.106,218.419 164.528 C 218.855 165.409,220.395 167.667,220.560 167.667 C 220.769 167.667,223.903 165.445,226.051 163.774 C 240.647 152.419,247.314 140.475,242.346 134.583 C 240.023 131.830,238.908 126.765,238.729 118.167 L 238.637 113.750 239.465 111.917 C 240.336 109.991,241.232 107.377,241.408 106.250 C 241.485 105.756,241.367 105.951,240.952 107.000 C 238.614 112.913,234.927 116.293,229.235 117.743 C 228.326 117.974,227.384 118.164,227.141 118.165 C 226.814 118.166,226.610 118.318,226.354 118.753 C 225.595 120.039,221.401 120.092,220.745 118.824 C 220.321 118.004,220.598 116.893,221.324 116.505 C 221.989 116.149,225.402 116.292,225.917 116.697 C 226.356 117.042,226.438 117.050,227.564 116.858 C 233.245 115.888,237.598 112.373,239.649 107.100 C 240.352 105.293,241.115 102.122,240.867 102.039 C 239.035 101.428,237.014 97.564,236.994 94.634 L 236.988 93.750 235.702 92.971 C 234.120 92.013,231.802 89.999,230.250 88.236 C 227.350 84.940,225.093 83.875,222.807 84.724 M126.815 85.610 C 126.562 85.678,126.167 86.327,126.167 86.675 C 126.167 87.510,133.623 88.020,134.405 87.238 C 134.794 86.849,134.736 86.068,134.296 85.759 C 133.942 85.512,127.654 85.386,126.815 85.610 M138.500 85.616 C 137.814 85.861,137.645 86.645,138.167 87.167 C 138.490 87.490,138.722 87.500,145.750 87.500 C 153.993 87.500,153.912 87.513,153.567 86.229 C 153.381 85.536,152.983 85.499,145.700 85.513 C 141.878 85.520,138.637 85.567,138.500 85.616 M295.000 89.833 C 295.000 90.137,294.889 90.167,293.760 90.167 C 292.571 90.167,292.194 90.026,292.417 89.667 C 292.636 89.311,295.000 89.464,295.000 89.833 M322.000 89.833 C 322.000 90.137,321.889 90.167,320.760 90.167 C 319.571 90.167,319.194 90.026,319.417 89.667 C 319.636 89.311,322.000 89.464,322.000 89.833 M126.389 92.603 C 126.133 92.994,126.129 93.084,126.350 93.478 L 126.596 93.917 133.667 93.917 L 140.737 93.917 140.984 93.478 C 141.205 93.084,141.201 92.994,140.945 92.603 L 140.659 92.167 133.667 92.167 L 126.674 92.167 126.389 92.603 M145.928 92.388 C 145.758 92.512,145.625 92.818,145.625 93.083 C 145.625 93.953,145.895 94.011,149.738 93.962 L 153.237 93.917 153.484 93.478 C 153.705 93.084,153.701 92.993,153.445 92.603 L 153.159 92.167 149.695 92.167 C 147.078 92.167,146.156 92.221,145.928 92.388 M296.667 95.986 C 296.667 96.356,295.123 97.382,294.691 97.298 C 294.166 97.197,294.422 96.768,295.333 96.219 C 296.386 95.586,296.667 95.537,296.667 95.986 M319.167 96.227 C 320.738 97.164,320.201 97.732,318.598 96.827 C 317.731 96.338,317.506 96.050,317.778 95.778 C 317.972 95.584,318.227 95.666,319.167 96.227 M301.333 100.591 C 301.333 101.000,300.197 102.667,299.919 102.667 C 299.533 102.667,299.615 102.214,300.179 101.229 C 300.681 100.351,301.333 99.991,301.333 100.591 M314.328 101.349 C 314.857 102.341,314.854 102.792,314.319 102.587 C 314.036 102.478,313.167 100.980,313.167 100.600 C 313.167 99.951,313.801 100.360,314.328 101.349 M307.566 102.264 C 307.927 103.205,307.519 104.904,307.007 104.588 C 306.661 104.374,306.791 102.000,307.149 102.000 C 307.322 102.000,307.510 102.119,307.566 102.264 M282.932 163.172 C 283.368 163.687,285.983 167.152,287.783 169.601 C 293.377 177.209,299.963 188.945,302.973 196.667 C 303.170 197.171,303.669 198.436,304.082 199.478 C 305.025 201.855,305.027 201.845,303.875 200.635 C 301.242 197.869,295.859 194.847,292.215 194.088 L 291.681 193.977 292.045 194.977 C 292.393 195.932,292.445 195.987,293.163 196.182 C 296.378 197.050,301.535 199.739,304.444 202.063 L 305.304 202.750 306.236 205.583 C 306.749 207.142,307.414 209.279,307.715 210.333 L 308.261 212.250 309.061 212.301 C 309.768 212.347,309.851 212.317,309.770 212.051 C 309.720 211.886,309.598 211.381,309.499 210.931 C 309.400 210.480,309.088 209.280,308.805 208.264 C 306.861 201.277,311.399 192.969,319.463 188.754 C 320.951 187.977,320.925 187.925,319.255 188.343 C 312.872 189.938,307.962 195.385,307.394 201.502 C 307.266 202.880,307.145 202.859,306.658 201.373 C 304.145 193.703,298.726 183.164,293.482 175.750 C 290.556 171.614,284.315 164.097,282.899 163.004 C 282.634 162.799,282.639 162.826,282.932 163.172 M339.047 170.208 C 337.139 172.631,331.887 179.852,331.713 180.292 C 331.493 180.849,331.407 180.388,331.558 179.458 C 331.789 178.037,331.788 169.872,331.557 169.334 C 330.999 168.033,330.269 176.413,330.639 179.880 L 330.813 181.510 329.156 184.040 C 327.265 186.930,327.403 186.588,327.842 187.309 L 328.183 187.869 329.279 186.143 C 329.882 185.193,330.619 184.042,330.917 183.583 C 331.216 183.125,332.654 180.875,334.115 178.583 C 336.410 174.981,338.617 171.560,340.624 168.492 C 341.498 167.155,341.167 167.515,339.047 170.208 M351.750 191.389 C 349.084 192.579,344.421 194.900,342.333 196.077 C 340.149 197.308,334.990 200.416,333.466 201.419 C 331.821 202.502,331.935 202.622,332.515 200.417 C 333.224 197.725,333.520 195.410,333.465 193.000 L 333.417 190.917 333.122 191.456 C 332.183 193.174,331.167 198.339,331.167 201.390 L 331.167 202.929 330.042 203.667 C 326.523 205.973,318.500 211.894,318.500 212.184 C 318.500 212.943,320.798 211.689,327.211 207.431 C 327.648 207.141,327.806 207.137,330.128 207.354 C 335.058 207.815,348.514 207.582,350.063 207.009 C 351.982 206.300,335.500 205.829,329.750 206.429 C 328.488 206.561,328.367 206.666,332.583 203.966 C 340.646 198.804,345.579 195.728,351.583 192.119 C 355.234 189.924,355.257 189.825,351.750 191.389 M227.583 226.942 C 224.509 227.592,223.096 228.174,223.264 228.723 C 223.324 228.921,223.746 230.095,224.201 231.331 C 225.497 234.851,225.833 235.930,225.833 236.571 L 225.833 237.167 240.500 237.167 C 248.567 237.167,255.167 237.135,255.167 237.096 C 255.167 237.037,249.595 229.548,249.404 229.351 C 249.369 229.314,249.052 229.475,248.700 229.708 C 245.276 231.974,243.033 232.195,240.427 230.524 C 235.935 227.643,230.906 226.241,227.583 226.942 " stroke="none" fill="#f8cec0" fill-rule="evenodd"></path><path id="path4" d="M303.833 69.085 C 301.646 69.385,296.333 71.353,296.333 71.863 C 296.333 71.939,296.231 72.000,296.107 72.000 C 295.982 72.000,295.551 72.262,295.148 72.582 C 294.746 72.902,294.310 73.164,294.181 73.165 C 294.051 73.166,293.989 73.212,294.044 73.267 C 294.099 73.321,293.708 73.729,293.175 74.173 C 292.642 74.617,291.916 75.341,291.561 75.782 C 291.207 76.223,290.877 76.621,290.828 76.667 C 287.119 80.146,285.224 89.163,286.940 95.167 C 287.084 95.671,287.232 96.249,287.270 96.451 C 287.406 97.192,289.360 101.052,289.903 101.651 C 290.048 101.812,290.167 102.017,290.167 102.108 C 290.167 103.055,296.379 108.195,298.207 108.760 C 298.414 108.824,298.879 109.026,299.241 109.208 C 299.929 109.555,302.330 110.271,303.333 110.428 C 303.654 110.478,304.051 110.559,304.215 110.606 C 304.780 110.771,309.861 110.685,310.805 110.494 C 313.390 109.973,314.881 109.424,317.833 107.908 C 319.697 106.951,322.977 103.955,324.233 102.062 C 324.591 101.524,325.035 100.862,325.221 100.592 C 329.229 94.764,329.050 84.514,324.833 78.401 C 324.460 77.860,324.026 77.230,323.869 77.001 C 319.930 71.272,311.673 68.009,303.833 69.085 M311.547 74.070 C 326.050 78.344,327.791 98.057,314.235 104.498 C 302.005 110.308,288.324 99.400,291.303 86.213 C 293.337 77.207,302.843 71.505,311.547 74.070 M306.944 75.111 C 306.692 75.364,306.825 77.507,307.100 77.613 C 307.484 77.760,307.661 77.374,307.664 76.389 C 307.668 75.174,307.384 74.671,306.944 75.111 M299.719 77.103 C 299.599 77.417,300.469 79.119,300.820 79.253 C 301.367 79.464,301.414 78.993,300.931 78.119 C 300.174 76.749,299.933 76.547,299.719 77.103 M314.142 77.120 C 313.216 78.209,312.846 79.556,313.547 79.287 C 314.041 79.097,314.904 77.333,314.635 77.063 C 314.425 76.854,314.362 76.861,314.142 77.120 M306.751 79.697 C 306.707 79.818,306.644 81.979,306.611 84.500 C 306.578 87.021,306.493 89.328,306.423 89.627 C 306.281 90.228,306.519 90.667,306.986 90.667 C 307.139 90.667,308.552 91.948,310.127 93.513 C 313.045 96.415,313.528 96.735,313.630 95.832 C 313.669 95.491,313.184 94.925,310.922 92.669 C 309.407 91.157,308.167 89.798,308.167 89.647 C 308.167 89.497,308.055 89.282,307.919 89.169 C 307.713 88.998,307.664 88.179,307.628 84.273 L 307.583 79.583 307.208 79.530 C 307.001 79.501,306.796 79.576,306.751 79.697 M294.444 82.278 C 294.170 82.552,294.397 82.863,295.208 83.328 C 296.208 83.902,296.667 83.968,296.667 83.538 C 296.667 83.133,294.703 82.019,294.444 82.278 M318.667 82.727 C 317.744 83.277,317.500 83.697,318.043 83.802 C 318.328 83.857,319.283 83.368,319.874 82.864 C 320.095 82.676,320.121 82.562,319.979 82.391 C 319.732 82.093,319.725 82.095,318.667 82.727 M223.875 84.453 C 224.127 84.491,224.540 84.491,224.792 84.453 C 225.044 84.415,224.838 84.383,224.333 84.383 C 223.829 84.383,223.623 84.415,223.875 84.453 M292.417 89.667 C 292.194 90.026,292.571 90.167,293.760 90.167 C 294.889 90.167,295.000 90.137,295.000 89.833 C 295.000 89.464,292.636 89.311,292.417 89.667 M319.417 89.667 C 319.194 90.026,319.571 90.167,320.760 90.167 C 321.889 90.167,322.000 90.137,322.000 89.833 C 322.000 89.464,319.636 89.311,319.417 89.667 M212.991 92.958 L 212.417 93.583 213.042 93.009 C 213.623 92.474,213.743 92.333,213.616 92.333 C 213.588 92.333,213.307 92.615,212.991 92.958 M295.333 96.219 C 294.422 96.768,294.166 97.197,294.691 97.298 C 295.123 97.382,296.667 96.356,296.667 95.986 C 296.667 95.537,296.386 95.586,295.333 96.219 M317.778 95.778 C 317.506 96.050,317.731 96.338,318.598 96.827 C 320.201 97.732,320.738 97.164,319.167 96.227 C 318.227 95.666,317.972 95.584,317.778 95.778 M300.179 101.229 C 299.615 102.214,299.533 102.667,299.919 102.667 C 300.197 102.667,301.333 101.000,301.333 100.591 C 301.333 99.991,300.681 100.351,300.179 101.229 M313.167 100.600 C 313.167 100.980,314.036 102.478,314.319 102.587 C 314.854 102.792,314.857 102.341,314.328 101.349 C 313.801 100.360,313.167 99.951,313.167 100.600 M306.833 103.240 C 306.833 104.508,306.994 104.850,307.424 104.494 C 307.933 104.072,307.704 102.000,307.149 102.000 C 306.868 102.000,306.833 102.134,306.833 103.240 M238.717 119.500 C 238.717 120.004,238.748 120.210,238.786 119.958 C 238.824 119.706,238.824 119.294,238.786 119.042 C 238.748 118.790,238.717 118.996,238.717 119.500 M221.705 127.500 C 221.705 127.821,221.740 127.952,221.782 127.792 C 221.823 127.631,221.823 127.369,221.782 127.208 C 221.740 127.048,221.705 127.179,221.705 127.500 M106.667 172.450 C 106.438 172.490,105.969 172.595,105.625 172.684 L 105.000 172.846 105.000 174.081 C 105.000 198.230,133.213 222.788,170.583 231.170 C 171.317 231.334,172.367 231.583,172.917 231.723 C 185.915 235.028,210.427 236.536,224.441 234.892 L 225.298 234.792 225.424 235.354 C 225.493 235.664,225.581 235.828,225.618 235.720 C 225.656 235.612,225.503 235.012,225.278 234.387 C 224.162 231.279,223.113 228.404,222.491 226.750 C 222.111 225.742,221.701 224.617,221.579 224.250 C 221.457 223.883,220.557 221.408,219.578 218.750 C 218.600 216.092,217.700 213.617,217.579 213.250 C 217.457 212.883,217.009 211.646,216.584 210.500 C 216.158 209.354,215.445 207.404,215.000 206.167 C 214.555 204.929,213.842 202.979,213.416 201.833 C 212.991 200.688,212.543 199.450,212.421 199.083 C 212.299 198.717,211.849 197.479,211.421 196.333 C 210.993 195.188,210.545 193.950,210.427 193.583 C 210.308 193.217,210.093 192.617,209.948 192.250 C 209.675 191.560,209.092 189.974,207.743 186.250 C 207.312 185.058,206.700 183.371,206.384 182.500 C 206.068 181.629,205.634 180.429,205.419 179.833 C 203.819 175.381,203.541 174.829,202.452 173.937 C 200.777 172.564,201.113 172.609,191.667 172.485 C 182.504 172.364,107.345 172.334,106.667 172.450 M292.712 198.833 C 292.712 199.246,292.745 199.415,292.784 199.208 C 292.824 199.002,292.824 198.665,292.784 198.458 C 292.745 198.252,292.712 198.421,292.712 198.833 M271.906 201.208 L 271.417 201.750 271.958 201.260 C 272.463 200.804,272.577 200.667,272.448 200.667 C 272.419 200.667,272.175 200.910,271.906 201.208 M297.833 217.167 L 297.833 222.083 319.667 222.083 L 341.500 222.083 341.500 217.210 L 341.500 212.336 319.667 212.293 L 297.833 212.250 297.833 217.167 M225.695 236.625 L 225.667 237.333 243.792 237.292 L 261.917 237.252 243.885 237.208 L 225.853 237.165 225.788 236.541 L 225.723 235.917 225.695 236.625 M88.458 242.958 C 89.490 242.987,91.177 242.987,92.208 242.958 C 93.240 242.929,92.396 242.905,90.333 242.905 C 88.271 242.905,87.427 242.929,88.458 242.958 " stroke="none" fill="#5b5c94" fill-rule="evenodd"></path></g></svg>